<?xml version="1.0" encoding="UTF-8" standalone="no"?>
<!-- Created with Inkscape (http://www.inkscape.org/) -->

<svg
   xmlns:dc="http://purl.org/dc/elements/1.1/"
   xmlns:cc="http://creativecommons.org/ns#"
   xmlns:rdf="http://www.w3.org/1999/02/22-rdf-syntax-ns#"
   xmlns:svg="http://www.w3.org/2000/svg"
   xmlns="http://www.w3.org/2000/svg"
   xmlns:sodipodi="http://sodipodi.sourceforge.net/DTD/sodipodi-0.dtd"
   xmlns:inkscape="http://www.inkscape.org/namespaces/inkscape"
   width="9.9582672mm"
   height="12.670118mm"
   viewBox="0 0 9.9582672 12.670118"
   version="1.1"
   id="svg10901"
   inkscape:version="0.92.1 r15371"
   sodipodi:docname="pitemp.svg">
  <defs
     id="defs10895" />
  <sodipodi:namedview
     id="base"
     pagecolor="#ffffff"
     bordercolor="#666666"
     borderopacity="1.0"
     inkscape:pageopacity="0.0"
     inkscape:pageshadow="2"
     inkscape:zoom="5.6"
     inkscape:cx="-41.777229"
     inkscape:cy="47.872303"
     inkscape:document-units="mm"
     inkscape:current-layer="layer1"
     showgrid="false"
     inkscape:window-width="1920"
     inkscape:window-height="976"
     inkscape:window-x="1592"
     inkscape:window-y="-8"
     inkscape:window-maximized="1" />
  <metadata
     id="metadata10898">
    <rdf:RDF>
      <cc:Work
         rdf:about="">
        <dc:format>image/svg+xml</dc:format>
        <dc:type
           rdf:resource="http://purl.org/dc/dcmitype/StillImage" />
        <dc:title></dc:title>
      </cc:Work>
    </rdf:RDF>
  </metadata>
  <g
     inkscape:label="Layer 1"
     inkscape:groupmode="layer"
     id="layer1"
     transform="translate(262.75889,97.894578)">
    <g
       id="g5706"
       transform="matrix(0.35274165,0,0,0.35278467,-331.10619,-129.21036)"
       style="fill:none;fill-opacity:1">
      <g
         id="_x30_.1.0.0.0.233"
         style="fill:none;fill-opacity:1">
        <g
           id="_x30_.1.0.0.233"
           style="fill:none;fill-opacity:1">
          <g
             id="g9340"
             style="fill:none;fill-opacity:1">
            <path
               style="fill:none;fill-opacity:1;stroke:#ffffff;stroke-width:0.51800001"
               inkscape:connector-curvature="0"
               d="m 201.521,89.027 c -0.18,0.005 -0.371,0.072 -0.59,0.244 -0.535,-0.207 -1.056,-0.278 -1.519,0.143 -0.717,-0.093 -0.95,0.099 -1.128,0.322 -0.155,-0.003 -1.178,-0.162 -1.646,0.537 -1.176,-0.14 -1.549,0.691 -1.129,1.467 -0.239,0.372 -0.488,0.74 0.072,1.449 -0.197,0.396 -0.075,0.823 0.395,1.343 -0.124,0.554 0.119,0.946 0.556,1.251 -0.083,0.76 0.695,1.202 0.929,1.358 0.088,0.443 0.273,0.86 1.164,1.091 0.146,0.659 0.681,0.775 1.195,0.913 -1.708,0.992 -3.174,2.3 -3.162,5.508 l -0.251,0.445 c -1.961,1.194 -3.723,5.026 -0.967,8.138 0.183,0.977 0.482,1.675 0.752,2.451 0.401,3.121 3.028,4.582 3.72,4.754 1.016,0.775 2.096,1.507 3.557,2.019 1.379,1.422 2.871,1.965 4.373,1.963 0.021,0 0.046,0 0.066,0 1.503,0 2.994,-0.541 4.373,-1.963 1.463,-0.512 2.544,-1.246 3.559,-2.019 0.692,-0.172 3.318,-1.635 3.72,-4.754 0.269,-0.776 0.57,-1.475 0.75,-2.451 2.759,-3.113 0.994,-6.945 -0.964,-8.138 l -0.251,-0.445 c 0.011,-3.207 -1.457,-4.515 -3.166,-5.508 0.52,-0.139 1.051,-0.253 1.198,-0.913 0.887,-0.23 1.074,-0.648 1.163,-1.091 0.232,-0.156 1.011,-0.599 0.93,-1.358 0.435,-0.305 0.677,-0.697 0.555,-1.251 0.468,-0.519 0.591,-0.948 0.394,-1.343 0.563,-0.709 0.314,-1.077 0.072,-1.449 0.42,-0.776 0.052,-1.606 -1.125,-1.467 -0.469,-0.698 -1.488,-0.539 -1.648,-0.537 -0.177,-0.224 -0.409,-0.416 -1.127,-0.322 -0.464,-0.421 -0.984,-0.349 -1.519,-0.143 -0.637,-0.501 -1.058,-0.1 -1.537,0.052 -0.772,-0.251 -0.945,0.093 -1.324,0.233 -0.84,-0.177 -1.095,0.209 -1.497,0.617 l -0.47,-0.011 c -1.267,0.746 -1.896,2.266 -2.118,3.049 -0.224,-0.782 -0.852,-2.303 -2.118,-3.049 l -0.467,0.011 c -0.402,-0.408 -0.659,-0.794 -1.498,-0.617 -0.378,-0.14 -0.555,-0.484 -1.323,-0.233 -0.317,-0.1 -0.608,-0.308 -0.949,-0.296 z"
               id="path3023" />
            <path
               style="fill:none;fill-opacity:1;stroke:#ffffff;stroke-width:0.51800001"
               inkscape:connector-curvature="0"
               d="m 198.999,92.311 c 3.36,1.732 5.315,3.133 6.384,4.329 -0.548,2.195 -3.409,2.296 -4.455,2.234 0.216,-0.1 0.394,-0.218 0.455,-0.401 -0.261,-0.188 -1.193,-0.021 -1.842,-0.384 0.251,-0.052 0.367,-0.102 0.482,-0.287 -0.611,-0.194 -1.274,-0.364 -1.663,-0.689 0.211,0.003 0.404,0.049 0.679,-0.143 -0.549,-0.294 -1.135,-0.531 -1.592,-0.984 0.285,-0.006 0.592,-0.003 0.681,-0.106 -0.503,-0.312 -0.928,-0.658 -1.278,-1.037 0.398,0.047 0.565,0.006 0.661,-0.063 -0.38,-0.389 -0.86,-0.718 -1.09,-1.199 0.294,0.102 0.565,0.14 0.759,-0.01 -0.128,-0.292 -0.682,-0.464 -1,-1.144 0.313,0.03 0.641,0.069 0.707,0 -0.145,-0.588 -0.392,-0.919 -0.635,-1.261 0.665,-0.01 1.672,0.004 1.628,-0.052 l -0.412,-0.421 c 0.648,-0.173 1.316,0.027 1.796,0.18 0.218,-0.171 -0.003,-0.388 -0.268,-0.607 0.554,0.072 1.053,0.201 1.503,0.374 0.239,-0.217 -0.157,-0.435 -0.35,-0.652 0.852,0.162 1.214,0.389 1.573,0.617 0.261,-0.25 0.016,-0.461 -0.16,-0.679 0.642,0.239 0.975,0.546 1.322,0.849 0.119,-0.159 0.299,-0.276 0.081,-0.661 0.456,0.262 0.8,0.572 1.054,0.919 0.285,-0.18 0.169,-0.426 0.171,-0.652 0.475,0.387 0.775,0.797 1.145,1.199 0.075,-0.055 0.141,-0.239 0.197,-0.528 1.131,1.099 2.733,3.866 0.411,4.962 -1.969,-1.63 -4.329,-2.815 -6.944,-3.703 z"
               id="path3025" />
            <path
               style="fill:none;fill-opacity:1;stroke:#ffffff;stroke-width:0.51800001"
               inkscape:connector-curvature="0"
               d="m 216.831,92.311 c -3.362,1.732 -5.315,3.133 -6.385,4.329 0.548,2.195 3.408,2.296 4.453,2.234 -0.214,-0.1 -0.394,-0.218 -0.455,-0.401 0.263,-0.188 1.193,-0.021 1.842,-0.384 -0.249,-0.052 -0.365,-0.102 -0.483,-0.287 0.614,-0.194 1.276,-0.364 1.664,-0.689 -0.21,0.003 -0.404,0.049 -0.679,-0.143 0.551,-0.294 1.135,-0.531 1.592,-0.984 -0.285,-0.006 -0.591,-0.003 -0.68,-0.106 0.504,-0.312 0.927,-0.658 1.277,-1.037 -0.398,0.047 -0.565,0.006 -0.662,-0.063 0.38,-0.389 0.862,-0.718 1.091,-1.199 -0.294,0.102 -0.565,0.14 -0.761,-0.01 0.129,-0.292 0.685,-0.464 1.002,-1.144 -0.313,0.03 -0.641,0.069 -0.706,0 0.145,-0.588 0.393,-0.919 0.635,-1.261 -0.664,-0.01 -1.674,0.004 -1.627,-0.052 l 0.411,-0.421 c -0.649,-0.173 -1.315,0.027 -1.798,0.18 -0.216,-0.171 0.004,-0.388 0.271,-0.607 -0.554,0.072 -1.052,0.201 -1.502,0.374 -0.241,-0.217 0.155,-0.435 0.349,-0.652 -0.854,0.162 -1.215,0.389 -1.573,0.617 -0.262,-0.25 -0.017,-0.461 0.16,-0.679 -0.644,0.239 -0.975,0.546 -1.322,0.849 -0.119,-0.159 -0.302,-0.276 -0.081,-0.661 -0.457,0.262 -0.801,0.572 -1.057,0.919 -0.282,-0.18 -0.167,-0.426 -0.168,-0.652 -0.476,0.387 -0.776,0.797 -1.146,1.199 -0.075,-0.055 -0.14,-0.239 -0.196,-0.528 -1.132,1.099 -2.733,3.866 -0.411,4.962 1.971,-1.63 4.33,-2.815 6.945,-3.703 z"
               id="path3027" />
            <path
               style="fill:none;fill-opacity:1;stroke:#ffffff;stroke-width:0.51800001"
               inkscape:connector-curvature="0"
               d="m 211.985,114.679 c -0.006,2.05 -1.812,3.709 -4.035,3.705 -2.216,-0.004 -4.013,-1.66 -4.017,-3.705 -0.004,-2.05 1.794,-3.715 4.017,-3.717 2.223,-0.005 4.029,1.654 4.035,3.706 0,0.004 0,0.008 0,0.011 z"
               id="path3029" />
            <path
               style="fill:none;fill-opacity:1;stroke:#ffffff;stroke-width:0.51800001"
               inkscape:connector-curvature="0"
               d="m 205.63,104.077 c 1.671,1.086 1.98,3.562 0.685,5.527 -1.292,1.966 -3.696,2.678 -5.368,1.59 -0.004,-0.003 -0.01,-0.006 -0.017,-0.012 -1.664,-1.096 -1.959,-3.575 -0.658,-5.535 1.3,-1.951 3.693,-2.652 5.358,-1.57 z"
               id="path3031" />
            <path
               style="fill:none;fill-opacity:1;stroke:#ffffff;stroke-width:0.51800001"
               inkscape:connector-curvature="0"
               d="m 210.133,103.879 c -1.668,1.092 -1.967,3.57 -0.672,5.532 1.297,1.962 3.7,2.667 5.368,1.574 1.667,-1.092 1.968,-3.569 0.673,-5.532 -1.299,-1.962 -3.702,-2.665 -5.369,-1.574 z"
               id="path3033" />
            <path
               style="fill:none;fill-opacity:1;stroke:#ffffff;stroke-width:0.51800001"
               inkscape:connector-curvature="0"
               d="m 197.294,105.865 c 1.801,-0.483 0.607,7.449 -0.858,6.797 -1.61,-1.295 -2.129,-5.093 0.858,-6.797 z"
               id="path3035" />
            <path
               style="fill:none;fill-opacity:1;stroke:#ffffff;stroke-width:0.51800001"
               inkscape:connector-curvature="0"
               d="m 218.104,105.764 c -1.801,-0.483 -0.607,7.449 0.857,6.797 1.612,-1.295 2.131,-5.09 -0.857,-6.797 z"
               id="path3037" />
            <path
               style="fill:none;fill-opacity:1;stroke:#ffffff;stroke-width:0.51800001"
               inkscape:connector-curvature="0"
               d="m 211.986,99.858 c 3.107,-0.525 5.691,1.321 5.587,4.691 -0.1,1.292 -6.732,-4.5 -5.587,-4.691 z"
               id="path3039" />
            <path
               style="fill:none;fill-opacity:1;stroke:#ffffff;stroke-width:0.51800001"
               inkscape:connector-curvature="0"
               d="m 203.4,99.758 c -3.109,-0.525 -5.691,1.321 -5.588,4.691 0.102,1.293 6.732,-4.497 5.588,-4.691 z"
               id="path3041" />
            <path
               style="fill:none;fill-opacity:1;stroke:#ffffff;stroke-width:0.51800001"
               inkscape:connector-curvature="0"
               d="m 207.865,98.972 c -1.855,-0.048 -3.635,1.377 -3.639,2.202 -0.005,1.005 1.466,2.033 3.652,2.059 2.234,0.018 3.657,-0.822 3.662,-1.859 0.008,-1.173 -2.031,-2.419 -3.675,-2.402 z"
               id="path3043" />
            <path
               style="fill:none;fill-opacity:1;stroke:#ffffff;stroke-width:0.51800001"
               inkscape:connector-curvature="0"
               d="m 207.976,119.564 c 1.618,-0.07 3.787,0.521 3.791,1.305 0.026,0.762 -1.967,2.482 -3.9,2.453 -1.997,0.084 -3.958,-1.643 -3.934,-2.238 -0.028,-0.875 2.437,-1.559 4.043,-1.52 z"
               id="path3045" />
            <path
               style="fill:none;fill-opacity:1;stroke:#ffffff;stroke-width:0.51800001"
               inkscape:connector-curvature="0"
               d="m 202.005,114.912 c 1.151,1.391 1.677,3.826 0.716,4.545 -0.908,0.547 -3.117,0.324 -4.686,-1.932 -1.059,-1.893 -0.922,-3.817 -0.179,-4.381 1.11,-0.677 2.827,0.236 4.149,1.768 z"
               id="path3047" />
            <path
               style="fill:none;fill-opacity:1;stroke:#ffffff;stroke-width:0.51800001"
               inkscape:connector-curvature="0"
               d="m 213.72,114.476 c -1.244,1.457 -1.939,4.119 -1.029,4.975 0.868,0.666 3.201,0.574 4.923,-1.817 1.251,-1.605 0.831,-4.287 0.116,-4.996 -1.062,-0.824 -2.584,0.226 -4.01,1.838 z"
               id="path3049" />
            <path
               style="fill:none;fill-opacity:1;stroke:#ffffff;stroke-width:0.25"
               inkscape:connector-curvature="0"
               d="m 221.615,99.238 c 0,0.79 -0.641,1.429 -1.429,1.429 -0.79,0 -1.431,-0.64 -1.431,-1.429 0,-0.789 0.641,-1.429 1.431,-1.429 0.789,0.001 1.429,0.64 1.429,1.429 z"
               id="path3889" />
            <g
               id="g5701"
               transform="matrix(0.0649686,0,0,0.0649686,191.979,965.532)"
               style="fill:none;fill-opacity:1">
              <g
                 id="_x30_.1.0.0.0.233.0.0.15"
                 style="fill:none;fill-opacity:1">
                <g
                   id="_x30_.1.0.0.233.0.15"
                   style="fill:none;fill-opacity:1">
                  <g
                     id="flowRoot4415"
                     style="fill:none;fill-opacity:1">
                    <path
                       style="fill:none;fill-opacity:1"
                       inkscape:connector-curvature="0"
                       d="m 423.064,-13325.3 v -13.588 h -4.848 v -2.766 h 12.988 v 2.766 h -4.833 v 13.588 z"
                       id="path3024" />
                    <path
                       style="fill:none;fill-opacity:1"
                       inkscape:connector-curvature="0"
                       d="m 433.294,-13325.3 v -16.354 h 4.954 l 2.953,11.16 2.932,-11.16 h 4.946 v 16.354 h -3.06 v -12.874 l -3.247,12.874 h -3.157 l -3.247,-12.874 v 12.874 z"
                       id="path3026" />
                  </g>
                </g>
              </g>
            </g>
          </g>
        </g>
      </g>
    </g>
  </g>
</svg>
