G04 MADE WITH FRITZING*
G04 WWW.FRITZING.ORG*
G04 DOUBLE SIDED*
G04 HOLES PLATED*
G04 CONTOUR ON CENTER OF CONTOUR VECTOR*
%ASAXBY*%
%FSLAX23Y23*%
%MOIN*%
%OFA0B0*%
%SFA1.0B1.0*%
%ADD10C,0.085361*%
%ADD11C,0.049370*%
%ADD12C,0.085000*%
%ADD13C,0.120551*%
%ADD14C,0.094000*%
%ADD15C,0.088000*%
%ADD16C,0.135984*%
%ADD17C,0.075000*%
%ADD18R,0.085000X0.085000*%
%ADD19R,0.129522X0.280594*%
%ADD20R,0.061181X0.151823*%
%ADD21R,0.001000X0.001000*%
%LNMASK0*%
G90*
G70*
G54D10*
X988Y2708D03*
X988Y2608D03*
X988Y2508D03*
X988Y2408D03*
X988Y2308D03*
X988Y2208D03*
X988Y2108D03*
X988Y2008D03*
X988Y1908D03*
X988Y1808D03*
X988Y1708D03*
X988Y1608D03*
X988Y1508D03*
X988Y1408D03*
X988Y1308D03*
X988Y1208D03*
X988Y1108D03*
X988Y1008D03*
X988Y908D03*
X988Y808D03*
X1088Y808D03*
X1088Y908D03*
X1088Y1008D03*
X1088Y1108D03*
X1088Y1208D03*
X1088Y1308D03*
X1088Y1408D03*
X1088Y1508D03*
X1088Y1608D03*
X1088Y1708D03*
X1088Y1808D03*
X1088Y1908D03*
X1088Y2008D03*
X1088Y2108D03*
X1088Y2208D03*
X1088Y2308D03*
X1088Y2408D03*
X1088Y2508D03*
X1088Y2608D03*
X1088Y2708D03*
G54D11*
X388Y433D03*
G54D12*
X288Y1708D03*
X588Y1708D03*
X288Y1608D03*
X588Y1608D03*
X288Y1508D03*
X588Y1508D03*
X288Y1408D03*
X588Y1408D03*
X288Y1308D03*
X588Y1308D03*
X288Y1208D03*
X588Y1208D03*
X288Y1108D03*
X588Y1108D03*
X288Y1008D03*
X588Y1008D03*
X288Y908D03*
X588Y908D03*
X288Y808D03*
X588Y808D03*
G54D13*
X1988Y2508D03*
X1838Y2358D03*
X1838Y2658D03*
G54D14*
X2118Y2340D03*
X2118Y2675D03*
G54D15*
X1913Y708D03*
X1913Y608D03*
G54D12*
X2044Y908D03*
X1788Y908D03*
X2044Y1085D03*
X1788Y1085D03*
X1644Y908D03*
X1388Y908D03*
X1644Y1085D03*
X1388Y1085D03*
G54D15*
X1588Y708D03*
X1588Y608D03*
X1388Y708D03*
X1388Y608D03*
G54D16*
X2105Y2898D03*
X132Y619D03*
X134Y2902D03*
X1038Y2898D03*
X1036Y615D03*
G54D15*
X888Y908D03*
X888Y808D03*
X788Y908D03*
X788Y808D03*
G54D11*
X1237Y1107D03*
G54D17*
X663Y2483D03*
X563Y2483D03*
G54D11*
X1038Y383D03*
G54D18*
X288Y1708D03*
G54D19*
X1659Y144D03*
X255Y150D03*
X1970Y143D03*
X1816Y146D03*
X1503Y144D03*
X1346Y147D03*
X1191Y148D03*
X1035Y144D03*
X879Y147D03*
X724Y146D03*
X568Y147D03*
X410Y146D03*
G54D20*
X1499Y158D03*
X415Y158D03*
X1971Y147D03*
X1024Y155D03*
X1194Y155D03*
X1671Y155D03*
X1345Y155D03*
X564Y155D03*
X1815Y155D03*
X873Y155D03*
X715Y155D03*
X232Y167D03*
G54D21*
X626Y2520D02*
X700Y2520D01*
X626Y2519D02*
X700Y2519D01*
X626Y2518D02*
X700Y2518D01*
X626Y2517D02*
X700Y2517D01*
X626Y2516D02*
X700Y2516D01*
X626Y2515D02*
X700Y2515D01*
X626Y2514D02*
X700Y2514D01*
X626Y2513D02*
X700Y2513D01*
X626Y2512D02*
X700Y2512D01*
X626Y2511D02*
X700Y2511D01*
X626Y2510D02*
X700Y2510D01*
X626Y2509D02*
X700Y2509D01*
X626Y2508D02*
X700Y2508D01*
X626Y2507D02*
X700Y2507D01*
X626Y2506D02*
X700Y2506D01*
X626Y2505D02*
X700Y2505D01*
X626Y2504D02*
X700Y2504D01*
X626Y2503D02*
X700Y2503D01*
X626Y2502D02*
X700Y2502D01*
X626Y2501D02*
X700Y2501D01*
X626Y2500D02*
X700Y2500D01*
X626Y2499D02*
X700Y2499D01*
X626Y2498D02*
X700Y2498D01*
X626Y2497D02*
X700Y2497D01*
X626Y2496D02*
X700Y2496D01*
X626Y2495D02*
X700Y2495D01*
X626Y2494D02*
X700Y2494D01*
X626Y2493D02*
X700Y2493D01*
X626Y2492D02*
X662Y2492D01*
X664Y2492D02*
X700Y2492D01*
X626Y2491D02*
X658Y2491D01*
X667Y2491D02*
X700Y2491D01*
X626Y2490D02*
X657Y2490D01*
X669Y2490D02*
X700Y2490D01*
X626Y2489D02*
X656Y2489D01*
X670Y2489D02*
X700Y2489D01*
X626Y2488D02*
X655Y2488D01*
X671Y2488D02*
X700Y2488D01*
X626Y2487D02*
X654Y2487D01*
X671Y2487D02*
X700Y2487D01*
X626Y2486D02*
X654Y2486D01*
X672Y2486D02*
X700Y2486D01*
X626Y2485D02*
X654Y2485D01*
X672Y2485D02*
X700Y2485D01*
X626Y2484D02*
X654Y2484D01*
X672Y2484D02*
X700Y2484D01*
X626Y2483D02*
X653Y2483D01*
X672Y2483D02*
X700Y2483D01*
X626Y2482D02*
X654Y2482D01*
X672Y2482D02*
X700Y2482D01*
X626Y2481D02*
X654Y2481D01*
X672Y2481D02*
X700Y2481D01*
X626Y2480D02*
X654Y2480D01*
X671Y2480D02*
X700Y2480D01*
X626Y2479D02*
X655Y2479D01*
X671Y2479D02*
X700Y2479D01*
X626Y2478D02*
X655Y2478D01*
X670Y2478D02*
X700Y2478D01*
X626Y2477D02*
X656Y2477D01*
X669Y2477D02*
X700Y2477D01*
X626Y2476D02*
X657Y2476D01*
X668Y2476D02*
X700Y2476D01*
X626Y2475D02*
X659Y2475D01*
X666Y2475D02*
X700Y2475D01*
X626Y2474D02*
X700Y2474D01*
X626Y2473D02*
X700Y2473D01*
X626Y2472D02*
X700Y2472D01*
X626Y2471D02*
X700Y2471D01*
X626Y2470D02*
X700Y2470D01*
X626Y2469D02*
X700Y2469D01*
X626Y2468D02*
X700Y2468D01*
X626Y2467D02*
X700Y2467D01*
X626Y2466D02*
X700Y2466D01*
X626Y2465D02*
X700Y2465D01*
X626Y2464D02*
X700Y2464D01*
X626Y2463D02*
X700Y2463D01*
X626Y2462D02*
X700Y2462D01*
X626Y2461D02*
X700Y2461D01*
X626Y2460D02*
X700Y2460D01*
X626Y2459D02*
X700Y2459D01*
X626Y2458D02*
X700Y2458D01*
X626Y2457D02*
X700Y2457D01*
X626Y2456D02*
X700Y2456D01*
X626Y2455D02*
X700Y2455D01*
X626Y2454D02*
X700Y2454D01*
X626Y2453D02*
X700Y2453D01*
X626Y2452D02*
X700Y2452D01*
X626Y2451D02*
X700Y2451D01*
X626Y2450D02*
X700Y2450D01*
X626Y2449D02*
X700Y2449D01*
X626Y2448D02*
X700Y2448D01*
X626Y2447D02*
X700Y2447D01*
X626Y2446D02*
X700Y2446D01*
D02*
G04 End of Mask0*
M02*