; NON-PLATED HOLES START AT T1
; THROUGH (PLATED) HOLES START AT T100
M48
INCH
T1C0.084000
T2C0.125984
T100C0.027559
T101C0.090551
T102C0.015748
T103C0.040639
T104C0.035000
T105C0.038000
%
T1
X021184Y026749
X021184Y023402
T2
X010383Y028978
X001319Y006187
X021050Y028978
X010359Y006145
X001343Y029020
T100
X006633Y024825
X005633Y024825
T101
X018377Y026582
X018377Y023579
X019883Y025075
T102
X010383Y003825
X003883Y004325
X012373Y011071
T103
X009883Y026075
X009883Y015075
X010883Y019075
X009883Y018075
X010883Y022075
X010883Y023075
X009883Y024075
X010883Y010075
X010883Y012075
X010883Y016075
X010883Y026075
X009883Y021075
X009883Y025075
X010883Y024075
X009883Y022075
X010883Y009075
X010883Y018075
X010883Y020075
X010883Y011075
X010883Y021075
X009883Y010075
X009883Y012075
X010883Y013075
X010883Y008075
X009883Y009075
X009883Y013075
X009883Y008075
X010883Y014075
X010883Y027075
X009883Y019075
X009883Y011075
X009883Y020075
X010883Y015075
X009883Y016075
X009883Y014075
X010883Y017075
X009883Y027075
X009883Y017075
X009883Y023075
X010883Y025075
T104
X002883Y011075
X005883Y013075
X005883Y016075
X020442Y009075
X002883Y012075
X002883Y017075
X020442Y010847
X013883Y009075
X016442Y010847
X005883Y011075
X002883Y010075
X005883Y010075
X017883Y010847
X002883Y015075
X002883Y013075
X016442Y009075
X013883Y010847
X002883Y008075
X005883Y014075
X002883Y014075
X005883Y008075
X005883Y015075
X002883Y016075
X017883Y009075
X005883Y009075
X005883Y012075
X005883Y017075
X002883Y009075
T105
X008883Y009075
X019133Y007075
X015883Y007075
X007883Y008075
X008883Y008075
X007883Y009075
X015883Y006075
X013883Y007075
X013883Y006075
X019133Y006075
T00
M30
