G04 MADE WITH FRITZING*
G04 WWW.FRITZING.ORG*
G04 DOUBLE SIDED*
G04 HOLES PLATED*
G04 CONTOUR ON CENTER OF CONTOUR VECTOR*
%ASAXBY*%
%FSLAX23Y23*%
%MOIN*%
%OFA0B0*%
%SFA1.0B1.0*%
%ADD10C,0.075361*%
%ADD11C,0.039370*%
%ADD12C,0.075000*%
%ADD13C,0.110551*%
%ADD14C,0.078000*%
%ADD15C,0.065000*%
%ADD16R,0.075000X0.075000*%
%ADD17R,0.119522X0.270594*%
%ADD18R,0.051181X0.141823*%
%ADD19C,0.024000*%
%ADD20C,0.016000*%
%ADD21C,0.012000*%
%ADD22C,0.048000*%
%ADD23R,0.001000X0.001000*%
%LNCOPPER0*%
G90*
G70*
G54D10*
X988Y2708D03*
X988Y2608D03*
X988Y2508D03*
X988Y2408D03*
X988Y2308D03*
X988Y2208D03*
X988Y2108D03*
X988Y2008D03*
X988Y1908D03*
X988Y1808D03*
X988Y1708D03*
X988Y1608D03*
X988Y1508D03*
X988Y1408D03*
X988Y1308D03*
X988Y1208D03*
X988Y1108D03*
X988Y1008D03*
X988Y908D03*
X988Y808D03*
X1088Y808D03*
X1088Y908D03*
X1088Y1008D03*
X1088Y1108D03*
X1088Y1208D03*
X1088Y1308D03*
X1088Y1408D03*
X1088Y1508D03*
X1088Y1608D03*
X1088Y1708D03*
X1088Y1808D03*
X1088Y1908D03*
X1088Y2008D03*
X1088Y2108D03*
X1088Y2208D03*
X1088Y2308D03*
X1088Y2408D03*
X1088Y2508D03*
X1088Y2608D03*
X1088Y2708D03*
G54D11*
X388Y433D03*
G54D12*
X288Y1708D03*
X588Y1708D03*
X288Y1608D03*
X588Y1608D03*
X288Y1508D03*
X588Y1508D03*
X288Y1408D03*
X588Y1408D03*
X288Y1308D03*
X588Y1308D03*
X288Y1208D03*
X588Y1208D03*
X288Y1108D03*
X588Y1108D03*
X288Y1008D03*
X588Y1008D03*
X288Y908D03*
X588Y908D03*
X288Y808D03*
X588Y808D03*
G54D13*
X1988Y2508D03*
X1838Y2358D03*
X1838Y2658D03*
G54D14*
X1913Y708D03*
X1913Y608D03*
G54D12*
X2044Y908D03*
X1788Y908D03*
X2044Y1085D03*
X1788Y1085D03*
X1644Y908D03*
X1388Y908D03*
X1644Y1085D03*
X1388Y1085D03*
G54D14*
X1588Y708D03*
X1588Y608D03*
X1388Y708D03*
X1388Y608D03*
X888Y908D03*
X888Y808D03*
X788Y908D03*
X788Y808D03*
G54D11*
X1237Y1107D03*
G54D15*
X663Y2483D03*
X563Y2483D03*
G54D11*
X1038Y383D03*
G54D16*
X288Y1708D03*
G54D17*
X1659Y144D03*
X255Y150D03*
X1970Y143D03*
X1816Y146D03*
X1503Y144D03*
X1346Y147D03*
X1191Y148D03*
X1035Y144D03*
X879Y147D03*
X724Y146D03*
X568Y147D03*
X410Y146D03*
G54D18*
X1499Y158D03*
X415Y158D03*
X1971Y147D03*
X1024Y155D03*
X1194Y155D03*
X1671Y155D03*
X1345Y155D03*
X564Y155D03*
X1815Y155D03*
X873Y155D03*
X715Y155D03*
X232Y167D03*
G54D19*
X2138Y532D02*
X2138Y1007D01*
D02*
X2138Y1007D02*
X2066Y1066D01*
D02*
X1973Y359D02*
X2138Y532D01*
D02*
X1971Y212D02*
X1973Y359D01*
D02*
X288Y557D02*
X288Y779D01*
D02*
X232Y508D02*
X288Y557D01*
D02*
X232Y232D02*
X232Y508D01*
D02*
X989Y757D02*
X989Y776D01*
D02*
X937Y707D02*
X989Y757D01*
D02*
X287Y706D02*
X937Y707D01*
D02*
X288Y779D02*
X287Y706D01*
D02*
X415Y224D02*
X414Y408D01*
D02*
X414Y408D02*
X402Y420D01*
D02*
X788Y1506D02*
X957Y1507D01*
D02*
X688Y1606D02*
X788Y1506D01*
D02*
X617Y1607D02*
X688Y1606D01*
G54D20*
D02*
X389Y659D02*
X388Y446D01*
D02*
X989Y708D02*
X939Y659D01*
D02*
X939Y659D02*
X389Y659D01*
D02*
X1138Y706D02*
X989Y708D01*
D02*
X1189Y757D02*
X1138Y706D01*
D02*
X1439Y757D02*
X1189Y757D01*
D02*
X1490Y706D02*
X1439Y757D01*
D02*
X1564Y707D02*
X1490Y706D01*
G54D19*
D02*
X1189Y2557D02*
X1138Y2608D01*
D02*
X1138Y2608D02*
X1120Y2608D01*
D02*
X1239Y807D02*
X1188Y857D01*
D02*
X1188Y857D02*
X1189Y2557D01*
D02*
X1838Y808D02*
X1239Y807D01*
D02*
X1895Y732D02*
X1838Y808D01*
G54D20*
D02*
X564Y408D02*
X564Y221D01*
D02*
X613Y457D02*
X564Y408D01*
D02*
X1338Y457D02*
X613Y457D01*
D02*
X1389Y507D02*
X1338Y457D01*
D02*
X1388Y583D02*
X1389Y507D01*
G54D19*
D02*
X1815Y155D02*
X1816Y146D01*
D02*
X564Y155D02*
X568Y147D01*
D02*
X1345Y155D02*
X1346Y147D01*
D02*
X1671Y155D02*
X1659Y144D01*
D02*
X1194Y155D02*
X1191Y148D01*
D02*
X1035Y144D02*
X1024Y155D01*
D02*
X1971Y147D02*
X1971Y133D01*
D02*
X410Y146D02*
X415Y158D01*
D02*
X1503Y144D02*
X1499Y158D01*
D02*
X252Y152D02*
X255Y150D01*
D02*
X715Y155D02*
X724Y146D01*
D02*
X879Y147D02*
X873Y155D01*
D02*
X1338Y1006D02*
X1714Y1006D01*
D02*
X1251Y1094D02*
X1338Y1006D01*
D02*
X1714Y1006D02*
X1769Y1064D01*
G54D21*
D02*
X1038Y2557D02*
X1070Y2589D01*
D02*
X714Y2557D02*
X1038Y2557D01*
D02*
X674Y2499D02*
X714Y2557D01*
G54D19*
D02*
X560Y1708D02*
X317Y1708D01*
D02*
X565Y2357D02*
X614Y2308D01*
D02*
X614Y2308D02*
X957Y2308D01*
D02*
X564Y2458D02*
X565Y2357D01*
G54D20*
D02*
X1613Y383D02*
X1057Y383D01*
D02*
X1663Y332D02*
X1613Y383D01*
D02*
X1662Y274D02*
X1663Y332D01*
G54D22*
D02*
X1813Y207D02*
X1815Y155D01*
D02*
X1664Y207D02*
X1813Y207D01*
D02*
X1671Y155D02*
X1664Y207D01*
G54D19*
D02*
X255Y145D02*
X255Y150D01*
D02*
X1970Y142D02*
X1971Y147D01*
G54D23*
X631Y2515D02*
X695Y2515D01*
X631Y2514D02*
X695Y2514D01*
X631Y2513D02*
X695Y2513D01*
X631Y2512D02*
X695Y2512D01*
X631Y2511D02*
X695Y2511D01*
X631Y2510D02*
X695Y2510D01*
X631Y2509D02*
X695Y2509D01*
X631Y2508D02*
X695Y2508D01*
X631Y2507D02*
X695Y2507D01*
X631Y2506D02*
X695Y2506D01*
X631Y2505D02*
X695Y2505D01*
X631Y2504D02*
X695Y2504D01*
X631Y2503D02*
X695Y2503D01*
X631Y2502D02*
X695Y2502D01*
X631Y2501D02*
X695Y2501D01*
X631Y2500D02*
X695Y2500D01*
X631Y2499D02*
X695Y2499D01*
X631Y2498D02*
X695Y2498D01*
X631Y2497D02*
X662Y2497D01*
X664Y2497D02*
X695Y2497D01*
X631Y2496D02*
X657Y2496D01*
X668Y2496D02*
X695Y2496D01*
X631Y2495D02*
X655Y2495D01*
X670Y2495D02*
X695Y2495D01*
X631Y2494D02*
X654Y2494D01*
X672Y2494D02*
X695Y2494D01*
X631Y2493D02*
X653Y2493D01*
X673Y2493D02*
X695Y2493D01*
X631Y2492D02*
X652Y2492D01*
X674Y2492D02*
X695Y2492D01*
X631Y2491D02*
X651Y2491D01*
X675Y2491D02*
X695Y2491D01*
X631Y2490D02*
X650Y2490D01*
X675Y2490D02*
X695Y2490D01*
X631Y2489D02*
X650Y2489D01*
X676Y2489D02*
X695Y2489D01*
X631Y2488D02*
X649Y2488D01*
X676Y2488D02*
X695Y2488D01*
X631Y2487D02*
X649Y2487D01*
X676Y2487D02*
X695Y2487D01*
X631Y2486D02*
X649Y2486D01*
X677Y2486D02*
X695Y2486D01*
X631Y2485D02*
X649Y2485D01*
X677Y2485D02*
X695Y2485D01*
X631Y2484D02*
X649Y2484D01*
X677Y2484D02*
X695Y2484D01*
X631Y2483D02*
X649Y2483D01*
X677Y2483D02*
X695Y2483D01*
X631Y2482D02*
X649Y2482D01*
X677Y2482D02*
X695Y2482D01*
X631Y2481D02*
X649Y2481D01*
X677Y2481D02*
X695Y2481D01*
X631Y2480D02*
X649Y2480D01*
X677Y2480D02*
X695Y2480D01*
X631Y2479D02*
X649Y2479D01*
X676Y2479D02*
X695Y2479D01*
X631Y2478D02*
X650Y2478D01*
X676Y2478D02*
X695Y2478D01*
X631Y2477D02*
X650Y2477D01*
X675Y2477D02*
X695Y2477D01*
X631Y2476D02*
X651Y2476D01*
X675Y2476D02*
X695Y2476D01*
X631Y2475D02*
X651Y2475D01*
X674Y2475D02*
X695Y2475D01*
X631Y2474D02*
X652Y2474D01*
X673Y2474D02*
X695Y2474D01*
X631Y2473D02*
X653Y2473D01*
X672Y2473D02*
X695Y2473D01*
X631Y2472D02*
X654Y2472D01*
X671Y2472D02*
X695Y2472D01*
X631Y2471D02*
X656Y2471D01*
X669Y2471D02*
X695Y2471D01*
X631Y2470D02*
X659Y2470D01*
X667Y2470D02*
X695Y2470D01*
X631Y2469D02*
X695Y2469D01*
X631Y2468D02*
X695Y2468D01*
X631Y2467D02*
X695Y2467D01*
X631Y2466D02*
X695Y2466D01*
X631Y2465D02*
X695Y2465D01*
X631Y2464D02*
X695Y2464D01*
X631Y2463D02*
X695Y2463D01*
X631Y2462D02*
X695Y2462D01*
X631Y2461D02*
X695Y2461D01*
X631Y2460D02*
X695Y2460D01*
X631Y2459D02*
X695Y2459D01*
X631Y2458D02*
X695Y2458D01*
X631Y2457D02*
X695Y2457D01*
X631Y2456D02*
X695Y2456D01*
X631Y2455D02*
X695Y2455D01*
X631Y2454D02*
X695Y2454D01*
X631Y2453D02*
X695Y2453D01*
X631Y2452D02*
X695Y2452D01*
X631Y2451D02*
X695Y2451D01*
D02*
G04 End of Copper0*
M02*