G04 MADE WITH FRITZING*
G04 WWW.FRITZING.ORG*
G04 DOUBLE SIDED*
G04 HOLES PLATED*
G04 CONTOUR ON CENTER OF CONTOUR VECTOR*
%ASAXBY*%
%FSLAX23Y23*%
%MOIN*%
%OFA0B0*%
%SFA1.0B1.0*%
%ADD10C,0.075361*%
%ADD11C,0.039370*%
%ADD12C,0.075000*%
%ADD13C,0.110551*%
%ADD14C,0.078000*%
%ADD15C,0.065000*%
%ADD16R,0.075000X0.075000*%
%ADD17R,0.051181X0.141823*%
%ADD18R,0.119522X0.270594*%
%ADD19C,0.016000*%
%ADD20C,0.024000*%
%ADD21C,0.012000*%
%ADD22R,0.001000X0.001000*%
%LNCOPPER1*%
G90*
G70*
G54D10*
X988Y2708D03*
X988Y2608D03*
X988Y2508D03*
X988Y2408D03*
X988Y2308D03*
X988Y2208D03*
X988Y2108D03*
X988Y2008D03*
X988Y1908D03*
X988Y1808D03*
X988Y1708D03*
X988Y1608D03*
X988Y1508D03*
X988Y1408D03*
X988Y1308D03*
X988Y1208D03*
X988Y1108D03*
X988Y1008D03*
X988Y908D03*
X988Y808D03*
X1088Y808D03*
X1088Y908D03*
X1088Y1008D03*
X1088Y1108D03*
X1088Y1208D03*
X1088Y1308D03*
X1088Y1408D03*
X1088Y1508D03*
X1088Y1608D03*
X1088Y1708D03*
X1088Y1808D03*
X1088Y1908D03*
X1088Y2008D03*
X1088Y2108D03*
X1088Y2208D03*
X1088Y2308D03*
X1088Y2408D03*
X1088Y2508D03*
X1088Y2608D03*
X1088Y2708D03*
G54D11*
X388Y433D03*
G54D12*
X288Y1708D03*
X588Y1708D03*
X288Y1608D03*
X588Y1608D03*
X288Y1508D03*
X588Y1508D03*
X288Y1408D03*
X588Y1408D03*
X288Y1308D03*
X588Y1308D03*
X288Y1208D03*
X588Y1208D03*
X288Y1108D03*
X588Y1108D03*
X288Y1008D03*
X588Y1008D03*
X288Y908D03*
X588Y908D03*
X288Y808D03*
X588Y808D03*
G54D13*
X1988Y2508D03*
X1838Y2358D03*
X1838Y2658D03*
G54D14*
X1913Y708D03*
X1913Y608D03*
G54D12*
X2044Y908D03*
X1788Y908D03*
X2044Y1085D03*
X1788Y1085D03*
X1644Y908D03*
X1388Y908D03*
X1644Y1085D03*
X1388Y1085D03*
G54D14*
X1588Y708D03*
X1588Y608D03*
X1388Y708D03*
X1388Y608D03*
X888Y908D03*
X888Y808D03*
X788Y908D03*
X788Y808D03*
G54D11*
X1237Y1107D03*
G54D15*
X663Y2483D03*
X563Y2483D03*
X663Y2483D03*
X563Y2483D03*
G54D11*
X1038Y383D03*
G54D16*
X288Y1708D03*
G54D17*
X254Y142D03*
X1660Y132D03*
X1819Y132D03*
X1961Y132D03*
G54D18*
X255Y145D03*
X410Y144D03*
X567Y145D03*
X724Y144D03*
X879Y145D03*
X1035Y143D03*
X1191Y147D03*
X1346Y145D03*
X1816Y144D03*
X1503Y143D03*
X1659Y143D03*
X1970Y142D03*
G54D17*
X1039Y181D03*
X1188Y190D03*
X1346Y204D03*
G54D19*
X338Y1507D02*
X311Y1507D01*
D02*
X1188Y509D02*
X1188Y255D01*
D02*
X388Y446D02*
X388Y1457D01*
D02*
X388Y1457D02*
X338Y1507D01*
D02*
X1789Y608D02*
X1659Y509D01*
D02*
X1788Y885D02*
X1789Y608D01*
D02*
X1659Y509D02*
X1659Y273D01*
D02*
X1188Y658D02*
X1188Y509D01*
D02*
X1238Y708D02*
X1188Y658D01*
D02*
X1387Y409D02*
X1337Y359D01*
D02*
X1539Y409D02*
X1387Y409D01*
D02*
X1589Y458D02*
X1539Y409D01*
D02*
X1589Y583D02*
X1589Y458D01*
D02*
X1337Y359D02*
X1342Y269D01*
D02*
X1364Y708D02*
X1238Y708D01*
D02*
X738Y857D02*
X771Y825D01*
D02*
X713Y407D02*
X689Y432D01*
D02*
X1014Y407D02*
X713Y407D01*
D02*
X1029Y392D02*
X1014Y407D01*
D02*
X689Y432D02*
X689Y1457D01*
D02*
X689Y1457D02*
X638Y1508D01*
D02*
X1039Y246D02*
X1038Y369D01*
D02*
X638Y1508D02*
X611Y1508D01*
G54D20*
D02*
X689Y1707D02*
X887Y1908D01*
D02*
X617Y1707D02*
X689Y1707D01*
D02*
X887Y1908D02*
X957Y1908D01*
G54D21*
D02*
X1339Y908D02*
X1288Y858D01*
D02*
X1339Y1085D02*
X1240Y956D01*
D02*
X1240Y956D02*
X938Y958D01*
D02*
X1365Y1085D02*
X1339Y1085D01*
D02*
X938Y958D02*
X906Y925D01*
D02*
X1288Y858D02*
X938Y858D01*
D02*
X1365Y908D02*
X1339Y908D01*
D02*
X938Y858D02*
X906Y825D01*
G54D19*
D02*
X1288Y2508D02*
X1239Y2456D01*
D02*
X1189Y1458D02*
X787Y1459D01*
D02*
X1239Y1357D02*
X839Y1357D01*
D02*
X1337Y2357D02*
X1289Y2309D01*
D02*
X1289Y2309D02*
X1289Y1408D01*
D02*
X1239Y2456D02*
X1239Y1508D01*
D02*
X839Y1357D02*
X788Y1307D01*
D02*
X1289Y1408D02*
X1239Y1357D01*
D02*
X788Y1307D02*
X789Y1007D01*
D02*
X1239Y1508D02*
X1189Y1458D01*
D02*
X787Y1459D02*
X739Y1408D01*
D02*
X739Y1408D02*
X738Y857D01*
D02*
X1938Y2508D02*
X1288Y2508D01*
D02*
X1787Y2358D02*
X1337Y2357D01*
D02*
X789Y1007D02*
X789Y932D01*
G54D20*
D02*
X1816Y274D02*
X1816Y535D01*
G54D19*
D02*
X1188Y190D02*
X1191Y301D01*
D02*
X1188Y193D02*
X1191Y147D01*
D02*
X1191Y300D02*
X1188Y193D01*
G54D20*
D02*
X1188Y190D02*
X1191Y147D01*
D02*
X254Y142D02*
X255Y145D01*
D02*
X1961Y132D02*
X1970Y142D01*
D02*
X1659Y143D02*
X1660Y132D01*
D02*
X1819Y132D02*
X1816Y144D01*
D02*
X1888Y607D02*
X1883Y607D01*
D02*
X1816Y535D02*
X1888Y607D01*
D02*
X1120Y1107D02*
X1218Y1107D01*
G54D21*
D02*
X438Y1658D02*
X439Y2307D01*
D02*
X439Y2307D02*
X488Y2359D01*
D02*
X389Y1607D02*
X438Y1658D01*
D02*
X488Y2359D02*
X1038Y2359D01*
D02*
X311Y1607D02*
X389Y1607D01*
D02*
X1038Y2359D02*
X1070Y2389D01*
D02*
X488Y1458D02*
X488Y2208D01*
D02*
X488Y2208D02*
X538Y2257D01*
D02*
X539Y1407D02*
X488Y1458D01*
D02*
X538Y2257D02*
X1038Y2257D01*
D02*
X565Y1407D02*
X539Y1407D01*
D02*
X1038Y2257D02*
X1070Y2289D01*
G54D22*
X631Y2515D02*
X695Y2515D01*
X631Y2514D02*
X695Y2514D01*
X631Y2513D02*
X695Y2513D01*
X631Y2512D02*
X695Y2512D01*
X631Y2511D02*
X695Y2511D01*
X631Y2510D02*
X695Y2510D01*
X631Y2509D02*
X695Y2509D01*
X631Y2508D02*
X695Y2508D01*
X631Y2507D02*
X695Y2507D01*
X631Y2506D02*
X695Y2506D01*
X631Y2505D02*
X695Y2505D01*
X631Y2504D02*
X695Y2504D01*
X631Y2503D02*
X695Y2503D01*
X631Y2502D02*
X695Y2502D01*
X631Y2501D02*
X695Y2501D01*
X631Y2500D02*
X695Y2500D01*
X631Y2499D02*
X695Y2499D01*
X631Y2498D02*
X695Y2498D01*
X631Y2497D02*
X662Y2497D01*
X664Y2497D02*
X695Y2497D01*
X631Y2496D02*
X657Y2496D01*
X668Y2496D02*
X695Y2496D01*
X631Y2495D02*
X655Y2495D01*
X670Y2495D02*
X695Y2495D01*
X631Y2494D02*
X654Y2494D01*
X672Y2494D02*
X695Y2494D01*
X631Y2493D02*
X653Y2493D01*
X673Y2493D02*
X695Y2493D01*
X631Y2492D02*
X652Y2492D01*
X674Y2492D02*
X695Y2492D01*
X631Y2491D02*
X651Y2491D01*
X675Y2491D02*
X695Y2491D01*
X631Y2490D02*
X650Y2490D01*
X675Y2490D02*
X695Y2490D01*
X631Y2489D02*
X650Y2489D01*
X676Y2489D02*
X695Y2489D01*
X631Y2488D02*
X649Y2488D01*
X676Y2488D02*
X695Y2488D01*
X631Y2487D02*
X649Y2487D01*
X676Y2487D02*
X695Y2487D01*
X631Y2486D02*
X649Y2486D01*
X677Y2486D02*
X695Y2486D01*
X631Y2485D02*
X649Y2485D01*
X677Y2485D02*
X695Y2485D01*
X631Y2484D02*
X649Y2484D01*
X677Y2484D02*
X695Y2484D01*
X631Y2483D02*
X649Y2483D01*
X677Y2483D02*
X695Y2483D01*
X631Y2482D02*
X649Y2482D01*
X677Y2482D02*
X695Y2482D01*
X631Y2481D02*
X649Y2481D01*
X677Y2481D02*
X695Y2481D01*
X631Y2480D02*
X649Y2480D01*
X677Y2480D02*
X695Y2480D01*
X631Y2479D02*
X649Y2479D01*
X676Y2479D02*
X695Y2479D01*
X631Y2478D02*
X650Y2478D01*
X676Y2478D02*
X695Y2478D01*
X631Y2477D02*
X650Y2477D01*
X675Y2477D02*
X695Y2477D01*
X631Y2476D02*
X651Y2476D01*
X675Y2476D02*
X695Y2476D01*
X631Y2475D02*
X651Y2475D01*
X674Y2475D02*
X695Y2475D01*
X631Y2474D02*
X652Y2474D01*
X673Y2474D02*
X695Y2474D01*
X631Y2473D02*
X653Y2473D01*
X672Y2473D02*
X695Y2473D01*
X631Y2472D02*
X654Y2472D01*
X671Y2472D02*
X695Y2472D01*
X631Y2471D02*
X656Y2471D01*
X669Y2471D02*
X695Y2471D01*
X631Y2470D02*
X659Y2470D01*
X667Y2470D02*
X695Y2470D01*
X631Y2469D02*
X695Y2469D01*
X631Y2468D02*
X695Y2468D01*
X631Y2467D02*
X695Y2467D01*
X631Y2466D02*
X695Y2466D01*
X631Y2465D02*
X695Y2465D01*
X631Y2464D02*
X695Y2464D01*
X631Y2463D02*
X695Y2463D01*
X631Y2462D02*
X695Y2462D01*
X631Y2461D02*
X695Y2461D01*
X631Y2460D02*
X695Y2460D01*
X631Y2459D02*
X695Y2459D01*
X631Y2458D02*
X695Y2458D01*
X631Y2457D02*
X695Y2457D01*
X631Y2456D02*
X695Y2456D01*
X631Y2455D02*
X695Y2455D01*
X631Y2454D02*
X695Y2454D01*
X631Y2453D02*
X695Y2453D01*
X631Y2452D02*
X695Y2452D01*
X631Y2451D02*
X695Y2451D01*
D02*
G04 End of Copper1*
M02*