G04 MADE WITH FRITZING*
G04 WWW.FRITZING.ORG*
G04 DOUBLE SIDED*
G04 HOLES PLATED*
G04 CONTOUR ON CENTER OF CONTOUR VECTOR*
%ASAXBY*%
%FSLAX23Y23*%
%MOIN*%
%OFA0B0*%
%SFA1.0B1.0*%
%ADD10C,0.080000*%
%ADD11C,0.039370*%
%ADD12C,0.070000*%
%ADD13C,0.090551*%
%ADD14C,0.075000*%
%ADD15C,0.078000*%
%ADD16C,0.068000*%
%ADD17R,0.119522X0.270594*%
%ADD18R,0.205594X0.066929*%
%ADD19R,0.051181X0.141823*%
%ADD20R,0.075000X0.075000*%
%ADD21R,0.068000X0.068000*%
%ADD22C,0.024000*%
%ADD23C,0.016000*%
%ADD24C,0.048000*%
%ADD25R,0.001000X0.001000*%
%LNCOPPER0*%
G90*
G70*
G54D10*
X2015Y768D03*
X1905Y768D03*
G54D11*
X1117Y344D03*
X1118Y419D03*
G54D12*
X334Y2285D03*
X134Y2285D03*
X234Y2085D03*
G54D11*
X1972Y402D03*
G54D13*
X232Y2084D03*
X332Y2284D03*
X136Y2284D03*
G54D14*
X763Y490D03*
X763Y790D03*
X863Y490D03*
X863Y790D03*
X963Y490D03*
X963Y790D03*
X1063Y490D03*
X1063Y790D03*
X1163Y490D03*
X1163Y790D03*
X1263Y490D03*
X1263Y790D03*
X1363Y490D03*
X1363Y790D03*
X1463Y490D03*
X1463Y790D03*
G54D15*
X2009Y1741D03*
X2009Y1641D03*
X1682Y706D03*
X1682Y606D03*
X1843Y1741D03*
X1843Y1641D03*
G54D14*
X340Y564D03*
X84Y564D03*
X340Y742D03*
X84Y742D03*
X340Y1596D03*
X84Y1596D03*
X340Y1773D03*
X84Y1773D03*
X340Y2762D03*
X84Y2762D03*
X340Y2939D03*
X84Y2939D03*
G54D16*
X1461Y3275D03*
X1382Y3275D03*
X1303Y3275D03*
X1224Y3275D03*
X1145Y3275D03*
X1066Y3275D03*
X987Y3275D03*
X908Y3275D03*
X829Y3275D03*
X750Y3275D03*
X750Y2405D03*
X829Y2405D03*
X908Y2405D03*
X987Y2405D03*
X1066Y2405D03*
X1145Y2405D03*
X1224Y2405D03*
X1303Y2405D03*
X1382Y2405D03*
X1461Y2405D03*
G54D15*
X1873Y3688D03*
X1773Y3688D03*
X1673Y3688D03*
X1573Y3688D03*
X1473Y3688D03*
X1373Y3688D03*
X1273Y3688D03*
X1173Y3688D03*
X1073Y3688D03*
X973Y3688D03*
X873Y3688D03*
X773Y3688D03*
X673Y3688D03*
X573Y3688D03*
X473Y3688D03*
X373Y3688D03*
G54D14*
X762Y1333D03*
X862Y1333D03*
X962Y1333D03*
X1062Y1333D03*
X1162Y1333D03*
X1262Y1333D03*
X1362Y1333D03*
X1462Y1334D03*
X762Y2033D03*
X862Y2033D03*
X962Y2033D03*
X1062Y2033D03*
X1162Y2033D03*
X1262Y2033D03*
X1362Y2033D03*
X1462Y2033D03*
X2052Y552D03*
X1952Y552D03*
X1852Y552D03*
G54D15*
X472Y725D03*
X572Y725D03*
X472Y594D03*
X572Y594D03*
G54D11*
X1662Y419D03*
G54D17*
X1659Y144D03*
G54D18*
X1733Y207D03*
G54D17*
X255Y150D03*
X1816Y146D03*
X1503Y144D03*
X1346Y147D03*
X1191Y148D03*
X1035Y144D03*
X879Y147D03*
X724Y146D03*
X568Y147D03*
X410Y146D03*
G54D19*
X1499Y158D03*
X415Y158D03*
X1971Y147D03*
X1024Y155D03*
X1194Y155D03*
X1671Y155D03*
X1345Y155D03*
X564Y155D03*
X1815Y155D03*
X873Y155D03*
X715Y155D03*
X232Y167D03*
G54D20*
X763Y490D03*
G54D17*
X1971Y143D03*
G54D21*
X1461Y3275D03*
G54D20*
X762Y1334D03*
G54D22*
X1897Y738D02*
X1859Y580D01*
G54D23*
D02*
X1117Y358D02*
X1118Y406D01*
G54D22*
D02*
X212Y875D02*
X103Y762D01*
D02*
X213Y1651D02*
X212Y875D01*
D02*
X104Y1753D02*
X213Y1651D01*
D02*
X146Y2261D02*
X222Y2108D01*
D02*
X233Y1922D02*
X104Y1793D01*
D02*
X234Y2059D02*
X233Y1922D01*
D02*
X207Y2858D02*
X207Y2357D01*
D02*
X207Y2357D02*
X152Y2303D01*
D02*
X107Y2923D02*
X207Y2858D01*
G54D23*
D02*
X409Y2188D02*
X400Y3344D01*
D02*
X369Y3594D02*
X372Y3664D01*
D02*
X400Y3344D02*
X369Y3594D01*
D02*
X741Y2043D02*
X409Y2188D01*
D02*
X570Y3592D02*
X572Y3664D01*
D02*
X474Y3344D02*
X570Y3592D01*
D02*
X471Y2241D02*
X474Y3344D01*
D02*
X903Y2096D02*
X471Y2241D01*
D02*
X946Y2050D02*
X903Y2096D01*
D02*
X438Y2219D02*
X815Y2091D01*
D02*
X815Y2091D02*
X848Y2051D01*
D02*
X435Y3345D02*
X438Y2219D01*
D02*
X475Y3594D02*
X435Y3345D01*
D02*
X473Y3664D02*
X475Y3594D01*
D02*
X673Y3594D02*
X673Y3664D01*
D02*
X509Y3344D02*
X673Y3594D01*
D02*
X510Y2264D02*
X509Y3344D01*
D02*
X1025Y2099D02*
X510Y2264D01*
D02*
X1051Y2054D02*
X1025Y2099D01*
D02*
X1150Y2053D02*
X1113Y2117D01*
D02*
X1113Y2117D02*
X545Y2291D01*
D02*
X545Y2291D02*
X548Y3345D01*
D02*
X775Y3595D02*
X773Y3664D01*
D02*
X548Y3345D02*
X775Y3595D01*
D02*
X1180Y2148D02*
X582Y2309D01*
D02*
X582Y2309D02*
X585Y3344D01*
D02*
X1249Y2052D02*
X1180Y2148D01*
D02*
X878Y3590D02*
X874Y3664D01*
D02*
X585Y3344D02*
X878Y3590D01*
D02*
X970Y3596D02*
X972Y3664D01*
D02*
X615Y3333D02*
X970Y3596D01*
D02*
X617Y2330D02*
X615Y3333D01*
D02*
X1208Y2194D02*
X617Y2330D01*
D02*
X1346Y2050D02*
X1208Y2194D01*
D02*
X652Y2352D02*
X656Y3329D01*
D02*
X656Y3329D02*
X1072Y3594D01*
D02*
X1243Y2244D02*
X652Y2352D01*
D02*
X1072Y3594D02*
X1073Y3664D01*
D02*
X1446Y2049D02*
X1243Y2244D01*
D02*
X1535Y1383D02*
X1481Y1347D01*
D02*
X1529Y3337D02*
X1535Y1383D01*
D02*
X1172Y3594D02*
X1529Y3337D01*
D02*
X1172Y3664D02*
X1172Y3594D01*
D02*
X1405Y1274D02*
X1375Y1315D01*
D02*
X1512Y1274D02*
X1405Y1274D01*
D02*
X1564Y1334D02*
X1512Y1274D01*
D02*
X1563Y3345D02*
X1564Y1334D01*
D02*
X1273Y3593D02*
X1563Y3345D01*
D02*
X1273Y3664D02*
X1273Y3593D01*
D02*
X1336Y1234D02*
X1275Y1315D01*
D02*
X1596Y1332D02*
X1527Y1236D01*
D02*
X1527Y1236D02*
X1336Y1234D01*
D02*
X1595Y3345D02*
X1596Y1332D01*
D02*
X1373Y3594D02*
X1595Y3345D01*
D02*
X1373Y3664D02*
X1373Y3594D01*
D02*
X1299Y1196D02*
X1178Y1317D01*
D02*
X1627Y1335D02*
X1549Y1199D01*
D02*
X1549Y1199D02*
X1299Y1196D01*
D02*
X1625Y3346D02*
X1627Y1335D01*
D02*
X1476Y3595D02*
X1625Y3346D01*
D02*
X1474Y3664D02*
X1476Y3595D01*
D02*
X1238Y1157D02*
X1078Y1317D01*
D02*
X1657Y1336D02*
X1567Y1158D01*
D02*
X1567Y1158D02*
X1238Y1157D01*
D02*
X1652Y3346D02*
X1657Y1336D01*
D02*
X1573Y3591D02*
X1652Y3346D01*
D02*
X1573Y3664D02*
X1573Y3591D01*
D02*
X1204Y1110D02*
X979Y1318D01*
D02*
X1585Y1109D02*
X1204Y1110D01*
D02*
X1688Y1335D02*
X1585Y1109D01*
D02*
X1684Y3344D02*
X1688Y1335D01*
D02*
X1673Y3664D02*
X1684Y3344D01*
D02*
X1165Y1071D02*
X879Y1318D01*
D02*
X1606Y1068D02*
X1165Y1071D01*
D02*
X1720Y1339D02*
X1606Y1068D01*
D02*
X1717Y3344D02*
X1720Y1339D01*
D02*
X1774Y3592D02*
X1717Y3344D01*
D02*
X1773Y3664D02*
X1774Y3592D01*
D02*
X1123Y1031D02*
X1625Y1025D01*
D02*
X1748Y1335D02*
X1750Y3345D01*
D02*
X1625Y1025D02*
X1748Y1335D01*
D02*
X779Y1319D02*
X1123Y1031D01*
D02*
X1873Y3594D02*
X1873Y3664D01*
D02*
X1750Y3345D02*
X1873Y3594D01*
D02*
X1213Y1404D02*
X1249Y1352D01*
D02*
X894Y1510D02*
X1213Y1404D01*
D02*
X609Y1510D02*
X894Y1510D01*
D02*
X558Y1444D02*
X609Y1510D01*
D02*
X963Y850D02*
X557Y1030D01*
D02*
X557Y1030D02*
X558Y1444D01*
D02*
X963Y814D02*
X963Y850D01*
D02*
X1106Y1398D02*
X1147Y1351D01*
D02*
X871Y1483D02*
X1106Y1398D01*
D02*
X1063Y860D02*
X584Y1061D01*
D02*
X584Y1061D02*
X584Y1422D01*
D02*
X637Y1484D02*
X871Y1483D01*
D02*
X584Y1422D02*
X637Y1484D01*
D02*
X1063Y814D02*
X1063Y860D01*
D02*
X1009Y1390D02*
X1046Y1350D01*
D02*
X857Y1456D02*
X1009Y1390D01*
D02*
X659Y1458D02*
X857Y1456D01*
D02*
X613Y1408D02*
X659Y1458D01*
D02*
X614Y1085D02*
X613Y1408D01*
D02*
X1163Y870D02*
X614Y1085D01*
D02*
X1163Y814D02*
X1163Y870D01*
D02*
X910Y1390D02*
X946Y1350D01*
D02*
X838Y1430D02*
X910Y1390D01*
D02*
X684Y1429D02*
X838Y1430D01*
D02*
X646Y1386D02*
X684Y1429D01*
D02*
X645Y1115D02*
X646Y1386D01*
D02*
X1263Y880D02*
X645Y1115D01*
D02*
X1263Y814D02*
X1263Y880D01*
D02*
X822Y1400D02*
X850Y1353D01*
D02*
X713Y1399D02*
X822Y1400D01*
D02*
X1363Y893D02*
X674Y1146D01*
D02*
X677Y1363D02*
X713Y1399D01*
D02*
X674Y1146D02*
X677Y1363D01*
D02*
X1363Y814D02*
X1363Y893D01*
D02*
X858Y847D02*
X524Y1007D01*
D02*
X861Y813D02*
X858Y847D01*
D02*
X524Y1007D02*
X528Y1454D01*
D02*
X589Y1540D02*
X913Y1539D01*
D02*
X528Y1454D02*
X589Y1540D01*
D02*
X1303Y1420D02*
X1349Y1353D01*
D02*
X913Y1539D02*
X1303Y1420D01*
D02*
X933Y1569D02*
X1056Y2011D01*
D02*
X567Y1569D02*
X933Y1569D01*
D02*
X499Y1470D02*
X567Y1569D01*
D02*
X495Y982D02*
X499Y1470D01*
D02*
X761Y842D02*
X495Y982D01*
D02*
X762Y813D02*
X761Y842D01*
D02*
X822Y1598D02*
X955Y2011D01*
D02*
X756Y725D02*
X695Y779D01*
D02*
X1400Y730D02*
X756Y725D01*
D02*
X697Y837D02*
X467Y965D01*
D02*
X695Y779D02*
X697Y837D01*
D02*
X542Y1596D02*
X822Y1598D01*
D02*
X466Y1491D02*
X542Y1596D01*
D02*
X467Y965D02*
X466Y1491D01*
D02*
X1446Y775D02*
X1400Y730D01*
G54D22*
D02*
X602Y818D02*
X745Y691D01*
D02*
X1506Y694D02*
X1639Y519D01*
D02*
X745Y691D02*
X1506Y694D01*
D02*
X158Y824D02*
X602Y818D01*
D02*
X103Y763D02*
X158Y824D01*
D02*
X1810Y516D02*
X1830Y534D01*
D02*
X1639Y519D02*
X1810Y516D01*
D02*
X84Y742D02*
X248Y652D01*
D02*
X1960Y417D02*
X1870Y530D01*
D02*
X1971Y212D02*
X1972Y383D01*
D02*
X246Y280D02*
X245Y288D01*
D02*
X245Y288D02*
X247Y653D01*
D02*
X247Y653D02*
X109Y728D01*
G54D23*
D02*
X1185Y278D02*
X1184Y289D01*
D02*
X1184Y289D02*
X1165Y468D01*
D02*
X1037Y274D02*
X1037Y281D01*
D02*
X1037Y281D02*
X1060Y468D01*
D02*
X1495Y274D02*
X1495Y276D01*
D02*
X1494Y348D02*
X1379Y473D01*
D02*
X1495Y276D02*
X1494Y348D01*
D02*
X1343Y277D02*
X1341Y348D01*
D02*
X1341Y348D02*
X1274Y470D01*
D02*
X410Y275D02*
X410Y279D01*
D02*
X451Y488D02*
X740Y490D01*
D02*
X412Y453D02*
X451Y488D01*
D02*
X410Y279D02*
X412Y453D01*
D02*
X568Y147D02*
X568Y276D01*
D02*
X596Y399D02*
X839Y398D01*
D02*
X569Y373D02*
X596Y399D01*
D02*
X568Y276D02*
X569Y373D01*
D02*
X724Y146D02*
X729Y271D01*
D02*
X765Y353D02*
X938Y354D01*
D02*
X730Y329D02*
X765Y353D01*
D02*
X938Y354D02*
X960Y376D01*
D02*
X960Y376D02*
X962Y467D01*
D02*
X729Y271D02*
X730Y329D01*
G54D24*
D02*
X1816Y146D02*
X1800Y143D01*
D02*
X1805Y202D02*
X1659Y200D01*
D02*
X1800Y143D02*
X1805Y202D01*
D02*
X1659Y200D02*
X1659Y144D01*
G54D23*
D02*
X1640Y345D02*
X1640Y284D01*
D02*
X1481Y476D02*
X1640Y345D01*
D02*
X1640Y284D02*
X1641Y274D01*
G54D22*
D02*
X1815Y155D02*
X1816Y146D01*
D02*
X564Y155D02*
X568Y147D01*
D02*
X1345Y155D02*
X1346Y147D01*
D02*
X1671Y155D02*
X1659Y144D01*
D02*
X1194Y155D02*
X1191Y148D01*
D02*
X1035Y144D02*
X1024Y155D01*
D02*
X1971Y147D02*
X1971Y133D01*
D02*
X410Y146D02*
X415Y158D01*
D02*
X1503Y144D02*
X1499Y158D01*
D02*
X252Y152D02*
X255Y150D01*
D02*
X715Y155D02*
X724Y146D01*
D02*
X879Y147D02*
X873Y155D01*
G54D23*
D02*
X685Y564D02*
X1555Y567D01*
D02*
X656Y529D02*
X685Y564D01*
D02*
X391Y525D02*
X656Y529D01*
D02*
X358Y550D02*
X391Y525D01*
D02*
X1555Y567D02*
X1654Y430D01*
D02*
X861Y420D02*
X862Y467D01*
D02*
X839Y398D02*
X861Y420D01*
G54D25*
X133Y2320D02*
X134Y2320D01*
X333Y2320D02*
X334Y2320D01*
X126Y2319D02*
X141Y2319D01*
X326Y2319D02*
X341Y2319D01*
X123Y2318D02*
X144Y2318D01*
X323Y2318D02*
X344Y2318D01*
X120Y2317D02*
X147Y2317D01*
X320Y2317D02*
X347Y2317D01*
X118Y2316D02*
X149Y2316D01*
X318Y2316D02*
X349Y2316D01*
X116Y2315D02*
X151Y2315D01*
X316Y2315D02*
X351Y2315D01*
X115Y2314D02*
X152Y2314D01*
X314Y2314D02*
X352Y2314D01*
X113Y2313D02*
X154Y2313D01*
X313Y2313D02*
X354Y2313D01*
X112Y2312D02*
X155Y2312D01*
X312Y2312D02*
X355Y2312D01*
X111Y2311D02*
X156Y2311D01*
X310Y2311D02*
X356Y2311D01*
X109Y2310D02*
X157Y2310D01*
X309Y2310D02*
X357Y2310D01*
X108Y2309D02*
X158Y2309D01*
X308Y2309D02*
X358Y2309D01*
X108Y2308D02*
X159Y2308D01*
X308Y2308D02*
X359Y2308D01*
X107Y2307D02*
X160Y2307D01*
X307Y2307D02*
X360Y2307D01*
X106Y2306D02*
X161Y2306D01*
X306Y2306D02*
X361Y2306D01*
X105Y2305D02*
X162Y2305D01*
X305Y2305D02*
X362Y2305D01*
X105Y2304D02*
X162Y2304D01*
X305Y2304D02*
X362Y2304D01*
X104Y2303D02*
X163Y2303D01*
X304Y2303D02*
X363Y2303D01*
X104Y2302D02*
X163Y2302D01*
X303Y2302D02*
X363Y2302D01*
X103Y2301D02*
X164Y2301D01*
X303Y2301D02*
X364Y2301D01*
X103Y2300D02*
X132Y2300D01*
X135Y2300D02*
X164Y2300D01*
X302Y2300D02*
X332Y2300D01*
X335Y2300D02*
X364Y2300D01*
X102Y2299D02*
X127Y2299D01*
X140Y2299D02*
X165Y2299D01*
X302Y2299D02*
X327Y2299D01*
X340Y2299D02*
X365Y2299D01*
X102Y2298D02*
X125Y2298D01*
X142Y2298D02*
X165Y2298D01*
X302Y2298D02*
X325Y2298D01*
X342Y2298D02*
X365Y2298D01*
X101Y2297D02*
X124Y2297D01*
X143Y2297D02*
X166Y2297D01*
X301Y2297D02*
X324Y2297D01*
X343Y2297D02*
X366Y2297D01*
X101Y2296D02*
X123Y2296D01*
X144Y2296D02*
X166Y2296D01*
X301Y2296D02*
X323Y2296D01*
X344Y2296D02*
X366Y2296D01*
X101Y2295D02*
X122Y2295D01*
X145Y2295D02*
X166Y2295D01*
X301Y2295D02*
X322Y2295D01*
X345Y2295D02*
X366Y2295D01*
X100Y2294D02*
X121Y2294D01*
X146Y2294D02*
X167Y2294D01*
X300Y2294D02*
X321Y2294D01*
X346Y2294D02*
X367Y2294D01*
X100Y2293D02*
X120Y2293D01*
X147Y2293D02*
X167Y2293D01*
X300Y2293D02*
X320Y2293D01*
X347Y2293D02*
X367Y2293D01*
X100Y2292D02*
X120Y2292D01*
X147Y2292D02*
X167Y2292D01*
X300Y2292D02*
X319Y2292D01*
X347Y2292D02*
X367Y2292D01*
X100Y2291D02*
X119Y2291D01*
X148Y2291D02*
X167Y2291D01*
X300Y2291D02*
X319Y2291D01*
X348Y2291D02*
X367Y2291D01*
X99Y2290D02*
X119Y2290D01*
X148Y2290D02*
X167Y2290D01*
X299Y2290D02*
X319Y2290D01*
X348Y2290D02*
X367Y2290D01*
X99Y2289D02*
X118Y2289D01*
X149Y2289D02*
X168Y2289D01*
X299Y2289D02*
X318Y2289D01*
X348Y2289D02*
X368Y2289D01*
X99Y2288D02*
X118Y2288D01*
X149Y2288D02*
X168Y2288D01*
X299Y2288D02*
X318Y2288D01*
X349Y2288D02*
X368Y2288D01*
X99Y2287D02*
X118Y2287D01*
X149Y2287D02*
X168Y2287D01*
X299Y2287D02*
X318Y2287D01*
X349Y2287D02*
X368Y2287D01*
X99Y2286D02*
X118Y2286D01*
X149Y2286D02*
X168Y2286D01*
X299Y2286D02*
X318Y2286D01*
X349Y2286D02*
X368Y2286D01*
X99Y2285D02*
X118Y2285D01*
X149Y2285D02*
X168Y2285D01*
X299Y2285D02*
X318Y2285D01*
X349Y2285D02*
X368Y2285D01*
X99Y2284D02*
X118Y2284D01*
X149Y2284D02*
X168Y2284D01*
X299Y2284D02*
X318Y2284D01*
X349Y2284D02*
X368Y2284D01*
X99Y2283D02*
X118Y2283D01*
X149Y2283D02*
X168Y2283D01*
X299Y2283D02*
X318Y2283D01*
X349Y2283D02*
X368Y2283D01*
X99Y2282D02*
X118Y2282D01*
X149Y2282D02*
X168Y2282D01*
X299Y2282D02*
X318Y2282D01*
X349Y2282D02*
X368Y2282D01*
X99Y2281D02*
X118Y2281D01*
X148Y2281D02*
X168Y2281D01*
X299Y2281D02*
X318Y2281D01*
X348Y2281D02*
X368Y2281D01*
X99Y2280D02*
X119Y2280D01*
X148Y2280D02*
X167Y2280D01*
X299Y2280D02*
X319Y2280D01*
X348Y2280D02*
X367Y2280D01*
X100Y2279D02*
X119Y2279D01*
X148Y2279D02*
X167Y2279D01*
X300Y2279D02*
X319Y2279D01*
X348Y2279D02*
X367Y2279D01*
X100Y2278D02*
X120Y2278D01*
X147Y2278D02*
X167Y2278D01*
X300Y2278D02*
X320Y2278D01*
X347Y2278D02*
X367Y2278D01*
X100Y2277D02*
X120Y2277D01*
X147Y2277D02*
X167Y2277D01*
X300Y2277D02*
X320Y2277D01*
X347Y2277D02*
X367Y2277D01*
X100Y2276D02*
X121Y2276D01*
X146Y2276D02*
X167Y2276D01*
X300Y2276D02*
X321Y2276D01*
X346Y2276D02*
X367Y2276D01*
X101Y2275D02*
X122Y2275D01*
X145Y2275D02*
X166Y2275D01*
X301Y2275D02*
X322Y2275D01*
X345Y2275D02*
X366Y2275D01*
X101Y2274D02*
X123Y2274D01*
X144Y2274D02*
X166Y2274D01*
X301Y2274D02*
X323Y2274D01*
X344Y2274D02*
X366Y2274D01*
X101Y2273D02*
X124Y2273D01*
X143Y2273D02*
X166Y2273D01*
X301Y2273D02*
X324Y2273D01*
X343Y2273D02*
X366Y2273D01*
X102Y2272D02*
X125Y2272D01*
X141Y2272D02*
X165Y2272D01*
X302Y2272D02*
X325Y2272D01*
X341Y2272D02*
X365Y2272D01*
X102Y2271D02*
X127Y2271D01*
X140Y2271D02*
X165Y2271D01*
X302Y2271D02*
X327Y2271D01*
X340Y2271D02*
X365Y2271D01*
X103Y2270D02*
X164Y2270D01*
X303Y2270D02*
X364Y2270D01*
X103Y2269D02*
X164Y2269D01*
X303Y2269D02*
X364Y2269D01*
X104Y2268D02*
X163Y2268D01*
X304Y2268D02*
X363Y2268D01*
X104Y2267D02*
X163Y2267D01*
X304Y2267D02*
X363Y2267D01*
X105Y2266D02*
X162Y2266D01*
X305Y2266D02*
X362Y2266D01*
X105Y2265D02*
X161Y2265D01*
X305Y2265D02*
X361Y2265D01*
X106Y2264D02*
X161Y2264D01*
X306Y2264D02*
X361Y2264D01*
X107Y2263D02*
X160Y2263D01*
X307Y2263D02*
X360Y2263D01*
X108Y2262D02*
X159Y2262D01*
X308Y2262D02*
X359Y2262D01*
X109Y2261D02*
X158Y2261D01*
X309Y2261D02*
X358Y2261D01*
X110Y2260D02*
X157Y2260D01*
X310Y2260D02*
X357Y2260D01*
X111Y2259D02*
X156Y2259D01*
X311Y2259D02*
X356Y2259D01*
X112Y2258D02*
X155Y2258D01*
X312Y2258D02*
X355Y2258D01*
X113Y2257D02*
X154Y2257D01*
X313Y2257D02*
X354Y2257D01*
X115Y2256D02*
X152Y2256D01*
X315Y2256D02*
X352Y2256D01*
X116Y2255D02*
X151Y2255D01*
X316Y2255D02*
X350Y2255D01*
X118Y2254D02*
X149Y2254D01*
X318Y2254D02*
X349Y2254D01*
X120Y2253D02*
X147Y2253D01*
X320Y2253D02*
X346Y2253D01*
X123Y2252D02*
X144Y2252D01*
X323Y2252D02*
X344Y2252D01*
X127Y2251D02*
X140Y2251D01*
X326Y2251D02*
X340Y2251D01*
X233Y2120D02*
X234Y2120D01*
X226Y2119D02*
X241Y2119D01*
X223Y2118D02*
X244Y2118D01*
X220Y2117D02*
X247Y2117D01*
X218Y2116D02*
X249Y2116D01*
X216Y2115D02*
X251Y2115D01*
X214Y2114D02*
X252Y2114D01*
X213Y2113D02*
X254Y2113D01*
X212Y2112D02*
X255Y2112D01*
X210Y2111D02*
X256Y2111D01*
X209Y2110D02*
X257Y2110D01*
X208Y2109D02*
X258Y2109D01*
X208Y2108D02*
X259Y2108D01*
X207Y2107D02*
X260Y2107D01*
X206Y2106D02*
X261Y2106D01*
X205Y2105D02*
X262Y2105D01*
X205Y2104D02*
X262Y2104D01*
X204Y2103D02*
X263Y2103D01*
X203Y2102D02*
X263Y2102D01*
X203Y2101D02*
X264Y2101D01*
X203Y2100D02*
X232Y2100D01*
X235Y2100D02*
X264Y2100D01*
X202Y2099D02*
X227Y2099D01*
X240Y2099D02*
X265Y2099D01*
X202Y2098D02*
X225Y2098D01*
X242Y2098D02*
X265Y2098D01*
X201Y2097D02*
X224Y2097D01*
X243Y2097D02*
X266Y2097D01*
X201Y2096D02*
X223Y2096D01*
X244Y2096D02*
X266Y2096D01*
X201Y2095D02*
X222Y2095D01*
X245Y2095D02*
X266Y2095D01*
X200Y2094D02*
X221Y2094D01*
X246Y2094D02*
X267Y2094D01*
X200Y2093D02*
X220Y2093D01*
X247Y2093D02*
X267Y2093D01*
X200Y2092D02*
X220Y2092D01*
X247Y2092D02*
X267Y2092D01*
X200Y2091D02*
X219Y2091D01*
X248Y2091D02*
X267Y2091D01*
X199Y2090D02*
X219Y2090D01*
X248Y2090D02*
X267Y2090D01*
X199Y2089D02*
X218Y2089D01*
X248Y2089D02*
X268Y2089D01*
X199Y2088D02*
X218Y2088D01*
X249Y2088D02*
X268Y2088D01*
X199Y2087D02*
X218Y2087D01*
X249Y2087D02*
X268Y2087D01*
X199Y2086D02*
X218Y2086D01*
X249Y2086D02*
X268Y2086D01*
X199Y2085D02*
X218Y2085D01*
X249Y2085D02*
X268Y2085D01*
X199Y2084D02*
X218Y2084D01*
X249Y2084D02*
X268Y2084D01*
X199Y2083D02*
X218Y2083D01*
X249Y2083D02*
X268Y2083D01*
X199Y2082D02*
X218Y2082D01*
X249Y2082D02*
X268Y2082D01*
X199Y2081D02*
X218Y2081D01*
X248Y2081D02*
X268Y2081D01*
X199Y2080D02*
X219Y2080D01*
X248Y2080D02*
X267Y2080D01*
X200Y2079D02*
X219Y2079D01*
X248Y2079D02*
X267Y2079D01*
X200Y2078D02*
X220Y2078D01*
X247Y2078D02*
X267Y2078D01*
X200Y2077D02*
X220Y2077D01*
X247Y2077D02*
X267Y2077D01*
X200Y2076D02*
X221Y2076D01*
X246Y2076D02*
X267Y2076D01*
X201Y2075D02*
X222Y2075D01*
X245Y2075D02*
X266Y2075D01*
X201Y2074D02*
X223Y2074D01*
X244Y2074D02*
X266Y2074D01*
X201Y2073D02*
X224Y2073D01*
X243Y2073D02*
X266Y2073D01*
X202Y2072D02*
X225Y2072D01*
X241Y2072D02*
X265Y2072D01*
X202Y2071D02*
X227Y2071D01*
X240Y2071D02*
X265Y2071D01*
X203Y2070D02*
X264Y2070D01*
X203Y2069D02*
X264Y2069D01*
X204Y2068D02*
X263Y2068D01*
X204Y2067D02*
X263Y2067D01*
X205Y2066D02*
X262Y2066D01*
X205Y2065D02*
X261Y2065D01*
X206Y2064D02*
X261Y2064D01*
X207Y2063D02*
X260Y2063D01*
X208Y2062D02*
X259Y2062D01*
X209Y2061D02*
X258Y2061D01*
X210Y2060D02*
X257Y2060D01*
X211Y2059D02*
X256Y2059D01*
X212Y2058D02*
X255Y2058D01*
X213Y2057D02*
X254Y2057D01*
X215Y2056D02*
X252Y2056D01*
X216Y2055D02*
X250Y2055D01*
X218Y2054D02*
X249Y2054D01*
X220Y2053D02*
X246Y2053D01*
X223Y2052D02*
X244Y2052D01*
X227Y2051D02*
X240Y2051D01*
D02*
G04 End of Copper0*
M02*