; NON-PLATED HOLES START AT T1
; THROUGH (PLATED) HOLES START AT T100
M48
INCH
T1C0.116000
T100C0.028000
T101C0.040000
T102C0.030000
T103C0.059055
T104C0.035000
T105C0.038000
T106C0.015748
%
T1
X001116Y034670
X001116Y003623
X021110Y003623
X021110Y034670
T100
X014614Y032746
X009084Y024046
X013034Y024046
X009084Y032746
X014614Y024046
X008294Y024046
X009874Y032746
X011454Y032746
X008294Y032746
X013824Y032746
X011454Y024046
X010664Y024046
X012244Y032746
X013824Y024046
X009874Y024046
X013034Y032746
X010664Y032746
X007504Y024046
X012244Y024046
X007504Y032746
T101
X019046Y007682
X020146Y007682
T102
X002339Y020848
X001339Y022848
X003339Y022848
T103
X003317Y022842
X001356Y022842
X002317Y020842
T104
X019521Y005523
X014630Y004904
X000836Y007416
X010616Y013334
X012630Y004904
X003395Y007416
X008621Y020334
X007630Y004904
X008630Y007904
X003395Y015958
X009616Y013334
X000836Y017730
X008630Y004904
X003395Y017730
X014621Y013344
X008616Y013334
X012616Y013334
X009621Y020334
X013630Y007904
X018521Y005523
X011630Y004904
X007630Y007904
X010630Y004904
X000836Y029393
X010621Y020334
X000836Y005644
X007621Y020334
X007616Y013334
X013621Y020334
X011630Y007904
X000836Y015958
X003395Y027621
X020521Y005523
X013616Y013334
X014630Y007904
X003395Y029393
X009630Y007904
X012621Y020334
X000836Y027621
X009630Y004904
X012630Y007904
X011621Y020334
X013630Y004904
X014621Y020334
X011616Y013334
X010630Y007904
X003395Y005644
T105
X018430Y016407
X014726Y036882
X005719Y005935
X003726Y036882
X016726Y036882
X020093Y017407
X005719Y007252
X004719Y007252
X015726Y036882
X004719Y005935
X004726Y036882
X016824Y007064
X013726Y036882
X018430Y017407
X011726Y036882
X012726Y036882
X009726Y036882
X016824Y006064
X006726Y036882
X017726Y036882
X007726Y036882
X018726Y036882
X008726Y036882
X010726Y036882
X020093Y016407
X005726Y036882
T106
X019716Y004024
X011181Y004190
X016615Y004186
X011165Y003444
T00
M30
