G04 MADE WITH FRITZING*
G04 WWW.FRITZING.ORG*
G04 DOUBLE SIDED*
G04 HOLES PLATED*
G04 CONTOUR ON CENTER OF CONTOUR VECTOR*
%ASAXBY*%
%FSLAX23Y23*%
%MOIN*%
%OFA0B0*%
%SFA1.0B1.0*%
%ADD10C,0.090000*%
%ADD11C,0.049370*%
%ADD12C,0.100551*%
%ADD13C,0.085000*%
%ADD14C,0.088000*%
%ADD15C,0.126000*%
%ADD16C,0.078000*%
%ADD17C,0.075900*%
%ADD18R,0.061181X0.151823*%
%ADD19R,0.129522X0.280594*%
%ADD20R,0.085000X0.085000*%
%ADD21R,0.078000X0.078000*%
%ADD22R,0.001000X0.001000*%
%LNMASK1*%
G90*
G70*
G54D10*
X2015Y768D03*
X1905Y768D03*
X2015Y768D03*
X1905Y768D03*
G54D11*
X1117Y344D03*
X1118Y419D03*
X1972Y402D03*
G54D12*
X232Y2084D03*
X332Y2284D03*
X136Y2284D03*
G54D13*
X763Y490D03*
X763Y790D03*
X863Y490D03*
X863Y790D03*
X963Y490D03*
X963Y790D03*
X1063Y490D03*
X1063Y790D03*
X1163Y490D03*
X1163Y790D03*
X1263Y490D03*
X1263Y790D03*
X1363Y490D03*
X1363Y790D03*
X1463Y490D03*
X1463Y790D03*
G54D14*
X2009Y1741D03*
X2009Y1641D03*
X1682Y706D03*
X1682Y606D03*
X1843Y1741D03*
X1843Y1641D03*
G54D15*
X2111Y362D03*
X112Y362D03*
X112Y3467D03*
X2111Y3467D03*
G54D13*
X340Y564D03*
X84Y564D03*
X340Y742D03*
X84Y742D03*
X340Y1596D03*
X84Y1596D03*
X340Y1773D03*
X84Y1773D03*
X340Y2762D03*
X84Y2762D03*
X340Y2939D03*
X84Y2939D03*
G54D16*
X1461Y3275D03*
X1382Y3275D03*
X1303Y3275D03*
X1224Y3275D03*
X1145Y3275D03*
X1066Y3275D03*
X987Y3275D03*
X908Y3275D03*
X829Y3275D03*
X750Y3275D03*
X750Y2405D03*
X829Y2405D03*
X908Y2405D03*
X987Y2405D03*
X1066Y2405D03*
X1145Y2405D03*
X1224Y2405D03*
X1303Y2405D03*
X1382Y2405D03*
X1461Y2405D03*
G54D14*
X1873Y3688D03*
X1773Y3688D03*
X1673Y3688D03*
X1573Y3688D03*
X1473Y3688D03*
X1373Y3688D03*
X1273Y3688D03*
X1173Y3688D03*
X1073Y3688D03*
X973Y3688D03*
X873Y3688D03*
X773Y3688D03*
X673Y3688D03*
X573Y3688D03*
X473Y3688D03*
X373Y3688D03*
G54D17*
X762Y1333D03*
X862Y1333D03*
X962Y1333D03*
X1062Y1333D03*
X1162Y1333D03*
X1262Y1333D03*
X1362Y1333D03*
X1462Y1334D03*
X762Y2033D03*
X862Y2033D03*
X962Y2033D03*
X1062Y2033D03*
X1162Y2033D03*
X1262Y2033D03*
X1362Y2033D03*
X1462Y2033D03*
G54D13*
X2052Y552D03*
X1952Y552D03*
X1852Y552D03*
G54D14*
X472Y725D03*
X572Y725D03*
X472Y594D03*
X572Y594D03*
G54D11*
X1662Y419D03*
G54D18*
X254Y142D03*
X1660Y132D03*
X1819Y132D03*
X1961Y132D03*
G54D19*
X255Y145D03*
X410Y144D03*
X567Y145D03*
X724Y144D03*
X879Y145D03*
X1035Y143D03*
X1191Y147D03*
X1346Y145D03*
X1816Y144D03*
X1503Y143D03*
X1659Y143D03*
X1970Y142D03*
G54D20*
X763Y490D03*
G54D21*
X1461Y3275D03*
G54D20*
X762Y1334D03*
G54D18*
X1039Y181D03*
X1188Y190D03*
X1346Y204D03*
G54D22*
X133Y2325D02*
X134Y2325D01*
X333Y2325D02*
X334Y2325D01*
X125Y2324D02*
X142Y2324D01*
X325Y2324D02*
X342Y2324D01*
X121Y2323D02*
X145Y2323D01*
X321Y2323D02*
X345Y2323D01*
X119Y2322D02*
X148Y2322D01*
X319Y2322D02*
X348Y2322D01*
X117Y2321D02*
X150Y2321D01*
X317Y2321D02*
X350Y2321D01*
X115Y2320D02*
X152Y2320D01*
X315Y2320D02*
X352Y2320D01*
X113Y2319D02*
X154Y2319D01*
X313Y2319D02*
X354Y2319D01*
X111Y2318D02*
X155Y2318D01*
X311Y2318D02*
X355Y2318D01*
X110Y2317D02*
X157Y2317D01*
X310Y2317D02*
X357Y2317D01*
X109Y2316D02*
X158Y2316D01*
X309Y2316D02*
X358Y2316D01*
X108Y2315D02*
X159Y2315D01*
X307Y2315D02*
X359Y2315D01*
X106Y2314D02*
X160Y2314D01*
X306Y2314D02*
X360Y2314D01*
X105Y2313D02*
X162Y2313D01*
X305Y2313D02*
X361Y2313D01*
X104Y2312D02*
X162Y2312D01*
X304Y2312D02*
X362Y2312D01*
X104Y2311D02*
X163Y2311D01*
X304Y2311D02*
X363Y2311D01*
X103Y2310D02*
X164Y2310D01*
X303Y2310D02*
X364Y2310D01*
X102Y2309D02*
X165Y2309D01*
X302Y2309D02*
X365Y2309D01*
X101Y2308D02*
X166Y2308D01*
X301Y2308D02*
X366Y2308D01*
X101Y2307D02*
X166Y2307D01*
X301Y2307D02*
X366Y2307D01*
X100Y2306D02*
X167Y2306D01*
X300Y2306D02*
X367Y2306D01*
X99Y2305D02*
X168Y2305D01*
X299Y2305D02*
X367Y2305D01*
X99Y2304D02*
X168Y2304D01*
X299Y2304D02*
X368Y2304D01*
X98Y2303D02*
X169Y2303D01*
X298Y2303D02*
X369Y2303D01*
X98Y2302D02*
X169Y2302D01*
X298Y2302D02*
X369Y2302D01*
X97Y2301D02*
X170Y2301D01*
X297Y2301D02*
X370Y2301D01*
X97Y2300D02*
X170Y2300D01*
X297Y2300D02*
X370Y2300D01*
X97Y2299D02*
X170Y2299D01*
X296Y2299D02*
X370Y2299D01*
X96Y2298D02*
X171Y2298D01*
X296Y2298D02*
X371Y2298D01*
X96Y2297D02*
X171Y2297D01*
X296Y2297D02*
X371Y2297D01*
X96Y2296D02*
X171Y2296D01*
X296Y2296D02*
X371Y2296D01*
X95Y2295D02*
X172Y2295D01*
X295Y2295D02*
X372Y2295D01*
X95Y2294D02*
X172Y2294D01*
X295Y2294D02*
X372Y2294D01*
X95Y2293D02*
X172Y2293D01*
X295Y2293D02*
X372Y2293D01*
X95Y2292D02*
X172Y2292D01*
X295Y2292D02*
X372Y2292D01*
X95Y2291D02*
X172Y2291D01*
X294Y2291D02*
X372Y2291D01*
X94Y2290D02*
X173Y2290D01*
X294Y2290D02*
X372Y2290D01*
X94Y2289D02*
X173Y2289D01*
X294Y2289D02*
X373Y2289D01*
X94Y2288D02*
X173Y2288D01*
X294Y2288D02*
X373Y2288D01*
X94Y2287D02*
X173Y2287D01*
X294Y2287D02*
X373Y2287D01*
X94Y2286D02*
X173Y2286D01*
X294Y2286D02*
X373Y2286D01*
X94Y2285D02*
X173Y2285D01*
X294Y2285D02*
X373Y2285D01*
X94Y2284D02*
X173Y2284D01*
X294Y2284D02*
X373Y2284D01*
X94Y2283D02*
X173Y2283D01*
X294Y2283D02*
X373Y2283D01*
X94Y2282D02*
X173Y2282D01*
X294Y2282D02*
X373Y2282D01*
X94Y2281D02*
X173Y2281D01*
X294Y2281D02*
X373Y2281D01*
X94Y2280D02*
X173Y2280D01*
X294Y2280D02*
X372Y2280D01*
X95Y2279D02*
X172Y2279D01*
X294Y2279D02*
X372Y2279D01*
X95Y2278D02*
X172Y2278D01*
X295Y2278D02*
X372Y2278D01*
X95Y2277D02*
X172Y2277D01*
X295Y2277D02*
X372Y2277D01*
X95Y2276D02*
X172Y2276D01*
X295Y2276D02*
X372Y2276D01*
X95Y2275D02*
X172Y2275D01*
X295Y2275D02*
X371Y2275D01*
X96Y2274D02*
X171Y2274D01*
X296Y2274D02*
X371Y2274D01*
X96Y2273D02*
X171Y2273D01*
X296Y2273D02*
X371Y2273D01*
X96Y2272D02*
X171Y2272D01*
X296Y2272D02*
X371Y2272D01*
X97Y2271D02*
X170Y2271D01*
X297Y2271D02*
X370Y2271D01*
X97Y2270D02*
X170Y2270D01*
X297Y2270D02*
X370Y2270D01*
X97Y2269D02*
X170Y2269D01*
X297Y2269D02*
X369Y2269D01*
X98Y2268D02*
X169Y2268D01*
X298Y2268D02*
X369Y2268D01*
X98Y2267D02*
X169Y2267D01*
X298Y2267D02*
X369Y2267D01*
X99Y2266D02*
X168Y2266D01*
X299Y2266D02*
X368Y2266D01*
X99Y2265D02*
X167Y2265D01*
X299Y2265D02*
X367Y2265D01*
X100Y2264D02*
X167Y2264D01*
X300Y2264D02*
X367Y2264D01*
X101Y2263D02*
X166Y2263D01*
X301Y2263D02*
X366Y2263D01*
X101Y2262D02*
X166Y2262D01*
X301Y2262D02*
X365Y2262D01*
X102Y2261D02*
X165Y2261D01*
X302Y2261D02*
X365Y2261D01*
X103Y2260D02*
X164Y2260D01*
X303Y2260D02*
X364Y2260D01*
X104Y2259D02*
X163Y2259D01*
X304Y2259D02*
X363Y2259D01*
X105Y2258D02*
X162Y2258D01*
X305Y2258D02*
X362Y2258D01*
X105Y2257D02*
X161Y2257D01*
X305Y2257D02*
X361Y2257D01*
X107Y2256D02*
X160Y2256D01*
X306Y2256D02*
X360Y2256D01*
X108Y2255D02*
X159Y2255D01*
X308Y2255D02*
X359Y2255D01*
X109Y2254D02*
X158Y2254D01*
X309Y2254D02*
X358Y2254D01*
X110Y2253D02*
X157Y2253D01*
X310Y2253D02*
X357Y2253D01*
X112Y2252D02*
X155Y2252D01*
X312Y2252D02*
X355Y2252D01*
X113Y2251D02*
X154Y2251D01*
X313Y2251D02*
X354Y2251D01*
X115Y2250D02*
X152Y2250D01*
X315Y2250D02*
X352Y2250D01*
X117Y2249D02*
X150Y2249D01*
X317Y2249D02*
X350Y2249D01*
X119Y2248D02*
X148Y2248D01*
X319Y2248D02*
X348Y2248D01*
X122Y2247D02*
X145Y2247D01*
X322Y2247D02*
X345Y2247D01*
X126Y2246D02*
X141Y2246D01*
X326Y2246D02*
X341Y2246D01*
X233Y2125D02*
X234Y2125D01*
X225Y2124D02*
X242Y2124D01*
X221Y2123D02*
X245Y2123D01*
X219Y2122D02*
X248Y2122D01*
X216Y2121D02*
X250Y2121D01*
X215Y2120D02*
X252Y2120D01*
X213Y2119D02*
X254Y2119D01*
X211Y2118D02*
X255Y2118D01*
X210Y2117D02*
X257Y2117D01*
X209Y2116D02*
X258Y2116D01*
X207Y2115D02*
X259Y2115D01*
X206Y2114D02*
X260Y2114D01*
X205Y2113D02*
X262Y2113D01*
X204Y2112D02*
X262Y2112D01*
X204Y2111D02*
X263Y2111D01*
X203Y2110D02*
X264Y2110D01*
X202Y2109D02*
X265Y2109D01*
X201Y2108D02*
X266Y2108D01*
X201Y2107D02*
X266Y2107D01*
X200Y2106D02*
X267Y2106D01*
X199Y2105D02*
X268Y2105D01*
X199Y2104D02*
X268Y2104D01*
X198Y2103D02*
X269Y2103D01*
X198Y2102D02*
X269Y2102D01*
X197Y2101D02*
X270Y2101D01*
X197Y2100D02*
X270Y2100D01*
X196Y2099D02*
X270Y2099D01*
X196Y2098D02*
X271Y2098D01*
X196Y2097D02*
X271Y2097D01*
X196Y2096D02*
X271Y2096D01*
X195Y2095D02*
X272Y2095D01*
X195Y2094D02*
X272Y2094D01*
X195Y2093D02*
X272Y2093D01*
X195Y2092D02*
X272Y2092D01*
X194Y2091D02*
X272Y2091D01*
X194Y2090D02*
X273Y2090D01*
X194Y2089D02*
X273Y2089D01*
X194Y2088D02*
X273Y2088D01*
X194Y2087D02*
X273Y2087D01*
X194Y2086D02*
X273Y2086D01*
X194Y2085D02*
X273Y2085D01*
X194Y2084D02*
X273Y2084D01*
X194Y2083D02*
X273Y2083D01*
X194Y2082D02*
X273Y2082D01*
X194Y2081D02*
X273Y2081D01*
X194Y2080D02*
X272Y2080D01*
X195Y2079D02*
X272Y2079D01*
X195Y2078D02*
X272Y2078D01*
X195Y2077D02*
X272Y2077D01*
X195Y2076D02*
X272Y2076D01*
X195Y2075D02*
X272Y2075D01*
X196Y2074D02*
X271Y2074D01*
X196Y2073D02*
X271Y2073D01*
X196Y2072D02*
X271Y2072D01*
X197Y2071D02*
X270Y2071D01*
X197Y2070D02*
X270Y2070D01*
X197Y2069D02*
X270Y2069D01*
X198Y2068D02*
X269Y2068D01*
X198Y2067D02*
X269Y2067D01*
X199Y2066D02*
X268Y2066D01*
X199Y2065D02*
X267Y2065D01*
X200Y2064D02*
X267Y2064D01*
X201Y2063D02*
X266Y2063D01*
X201Y2062D02*
X265Y2062D01*
X202Y2061D02*
X265Y2061D01*
X203Y2060D02*
X264Y2060D01*
X204Y2059D02*
X263Y2059D01*
X205Y2058D02*
X262Y2058D01*
X205Y2057D02*
X261Y2057D01*
X207Y2056D02*
X260Y2056D01*
X208Y2055D02*
X259Y2055D01*
X209Y2054D02*
X258Y2054D01*
X210Y2053D02*
X257Y2053D01*
X212Y2052D02*
X255Y2052D01*
X213Y2051D02*
X254Y2051D01*
X215Y2050D02*
X252Y2050D01*
X217Y2049D02*
X250Y2049D01*
X219Y2048D02*
X248Y2048D01*
X222Y2047D02*
X245Y2047D01*
X226Y2046D02*
X241Y2046D01*
D02*
G04 End of Mask1*
M02*